<svg width="24" height="24" viewBox="0 0 24 24" fill="none" xmlns="http://www.w3.org/2000/svg">
<g clip-path="url(#clip0)">
<circle cx="12" cy="12" r="11" fill="white"/>
<path d="M12 2.01999C17.514 2.01999 22 6.50599 22 12.02C22 17.534 17.514 22.02 12 22.02C6.486 22.02 2 17.534 2 12.02C2 6.50599 6.486 2.01999 12 2.01999V2.01999ZM12 0.019989C5.373 0.019989 0 5.39299 0 12.02C0 18.647 5.373 24.02 12 24.02C18.627 24.02 24 18.647 24 12.02C24 5.39299 18.627 0.019989 12 0.019989V0.019989ZM12 12.57L6.008 7.99999H17.991L12 12.57ZM12 13.858L6 9.22899V16H18V9.22899L12 13.858V13.858Z" fill="black"/>
</g>
<defs>
<clipPath id="clip0">
<rect width="24" height="24" fill="white"/>
</clipPath>
</defs>
</svg>
