<svg width="512" height="512" viewBox="0 0 512 512" fill="none" xmlns="http://www.w3.org/2000/svg">
<path d="M492 268.3C485.7 391.1 382.1 492.7 255.5 492.8C128.8 492.9 24.8 391.2 18.5 268.3C11.7 136.2 119.6 19.2 255.2 19.2C390.9 19.2 498.7 136.3 492 268.3Z" stroke="#231F20" stroke-width="35" stroke-miterlimit="10"/>
<circle cx="255" cy="256" r="237" fill="white"/>
<path d="M346.6 137.5C346.6 133.2 346.2 128.9 346 124.7C336.8 124.7 329.1 124.7 320.4 124.7C320.4 134.5 320.4 143.6 320.4 152.8C279.3 95.5 194.8 113.6 171 170.7C155.8 207.3 156.6 244.1 172.5 280.1C189.3 318.1 237.5 334.2 275.3 323.5C277.3 323.2 279.6 322.6 282.1 321.8C285.7 320.7 288.8 319.3 290.8 318.2C296 316.1 302.2 312.6 308.3 307.9C313.2 304.1 317.4 300.1 320.7 296.4C319.8 310.7 319.4 325.1 317.1 339.2C314.3 356.6 306.3 371.6 289.7 380.4C253.5 399.6 210.1 385 193.7 348C185.5 348 177.1 348 168.3 348C170.1 372.4 183 388.3 203 398.6C227.1 411 252.9 412.3 279.2 408C312.7 402.5 334.5 383.6 342.2 350.2C344.9 338.3 346.4 326 346.5 313.8C346.8 255 346.6 196.2 346.6 137.5ZM316.5 260.3C311.7 274.1 303.7 285 293.2 292.5C290.6 294.4 277.8 303.3 259.1 304.2C258 304.3 254.9 304.4 251.1 304.2C251 304.3 250.8 304.3 250.7 304.3C223.4 302.6 202.5 286.7 193.3 260.4C185.6 238.3 185.4 215.8 191 193.3C199.1 160.8 222.6 140.9 252.6 140.1C253.3 140 253.7 140 253.7 140C269.3 138.6 281.5 145.1 285.3 147.2C301.4 155.8 313.5 171.8 318.8 193.2C324.4 215.7 324.2 238.2 316.5 260.3Z" fill="#231F20"/>
</svg>
