<svg width="24" height="24" viewBox="0 0 24 24" fill="none" xmlns="http://www.w3.org/2000/svg">
<path d="M21.9875 12.5194C21.7217 17.7052 17.3514 21.9958 12.0107 22C6.66587 22.0042 2.27862 17.7095 2.01285 12.5194C1.72599 6.94088 6.27777 2 11.9981 2C17.7226 2 22.2701 6.9451 21.9875 12.5194Z" stroke="#231F20" stroke-width="4" stroke-miterlimit="10"/>
<circle cx="12" cy="12" r="10" fill="white"/>
<path d="M15.9972 6.80821C15.9972 6.63175 15.98 6.4553 15.9715 6.28294C15.577 6.28294 15.2469 6.28294 14.8739 6.28294C14.8739 6.6851 14.8739 7.05853 14.8739 7.43606C13.1118 5.08469 9.48894 5.82744 8.46854 8.17061C7.81686 9.67253 7.85116 11.1827 8.53286 12.66C9.25314 14.2193 11.3197 14.88 12.9403 14.4409C13.026 14.4286 13.1246 14.404 13.2318 14.3712C13.3862 14.326 13.5191 14.2686 13.6048 14.2234C13.8278 14.1373 14.0936 13.9936 14.3551 13.8008C14.5652 13.6448 14.7453 13.4807 14.8868 13.3289C14.8482 13.9157 14.831 14.5066 14.7324 15.0852C14.6124 15.7992 14.2694 16.4148 13.5577 16.7759C12.0056 17.5638 10.1449 16.9647 9.44178 15.4463C9.09022 15.4463 8.73008 15.4463 8.35279 15.4463C8.42996 16.4476 8.98303 17.1001 9.84051 17.5228C10.8738 18.0316 11.9799 18.085 13.1075 17.9085C14.5438 17.6828 15.4784 16.9072 15.8086 15.5366C15.9243 15.0483 15.9886 14.5435 15.9929 14.0429C16.0058 11.63 15.9972 9.21703 15.9972 6.80821ZM14.7067 11.8475C14.5009 12.4138 14.1579 12.861 13.7077 13.1688C13.5963 13.2468 13.0475 13.612 12.2457 13.6489C12.1986 13.653 12.0657 13.6571 11.9027 13.6489C11.8985 13.653 11.8899 13.653 11.8856 13.653C10.7151 13.5833 9.81907 12.9308 9.42463 11.8516C9.0945 10.9447 9.08593 10.0213 9.32602 9.09803C9.6733 7.76435 10.6808 6.94773 11.9671 6.9149C11.9971 6.9108 12.0142 6.9108 12.0142 6.9108C12.683 6.85335 13.2061 7.12008 13.369 7.20626C14.0593 7.55917 14.5781 8.21575 14.8053 9.09392C15.0454 10.0172 15.0368 10.9406 14.7067 11.8475Z" fill="#231F20"/>
</svg>
