<svg width="24" height="24" viewBox="0 0 24 24" fill="none" xmlns="http://www.w3.org/2000/svg">
<circle cx="12" cy="12" r="11" fill="white"/>
<path d="M12 2C17.514 2 22 6.486 22 12C22 17.514 17.514 22 12 22C6.486 22 2 17.514 2 12C2 6.486 6.486 2 12 2ZM12 0C5.373 0 0 5.373 0 12C0 18.627 5.373 24 12 24C18.627 24 24 18.627 24 12C24 5.373 18.627 0 12 0ZM12 6C8.687 6 6 8.686 6 12C6 14.542 7.581 16.712 9.812 17.587C9.76 17.112 9.712 16.384 9.834 15.866C9.942 15.398 10.537 12.884 10.537 12.884C10.537 12.884 10.356 12.525 10.356 11.993C10.356 11.159 10.841 10.536 11.443 10.536C11.955 10.536 12.202 10.921 12.202 11.381C12.202 11.897 11.874 12.666 11.705 13.379C11.563 13.977 12.005 14.463 12.594 14.463C13.66 14.463 14.481 13.339 14.481 11.716C14.481 10.279 13.449 9.275 11.974 9.275C10.267 9.275 9.265 10.555 9.265 11.879C9.265 12.395 9.464 12.947 9.711 13.247C9.76 13.307 9.767 13.359 9.752 13.42L9.587 14.1C9.56 14.21 9.499 14.234 9.386 14.181C8.636 13.832 8.167 12.737 8.167 11.856C8.167 9.963 9.542 8.226 12.131 8.226C14.213 8.226 15.831 9.708 15.831 11.691C15.831 13.759 14.527 15.423 12.717 15.423C12.109 15.423 11.538 15.108 11.342 14.734L10.968 16.16C10.833 16.681 10.467 17.335 10.222 17.733C10.784 17.906 11.382 18 12 18C15.313 18 18 15.313 18 12C18 8.686 15.313 6 12 6V6Z" fill="black"/>
</svg>
