<svg width="24" height="24" viewBox="0 0 24 24" fill="none" xmlns="http://www.w3.org/2000/svg">
<circle cx="12" cy="12" r="11" fill="white"/>
<path fill-rule="evenodd" clip-rule="evenodd" d="M12 0C5.373 0 0 5.373 0 12C0 18.627 5.373 24 12 24C18.627 24 24 18.627 24 12C24 5.373 18.627 0 12 0ZM12 2C17.514 2 22 6.486 22 12C22 17.514 17.514 22 12 22C6.486 22 2 17.514 2 12C2 6.486 6.486 2 12 2ZM17.147 16.076C17.973 15.478 18.5 14.593 18.5 13.61C18.5 11.807 16.747 10.347 14.584 10.347C12.422 10.347 10.669 11.807 10.669 13.61C10.669 15.412 12.422 16.872 14.584 16.872C15.031 16.872 15.463 16.809 15.863 16.694L15.978 16.676C16.053 16.676 16.121 16.699 16.186 16.737L17.043 17.232L17.118 17.256C17.19 17.256 17.249 17.197 17.249 17.125L17.228 17.03L17.051 16.372L17.037 16.288C17.037 16.201 17.081 16.123 17.147 16.076ZM10.199 6.744C7.604 6.744 5.5 8.497 5.5 10.66C5.5 11.84 6.133 12.902 7.123 13.619C7.203 13.676 7.255 13.769 7.255 13.875L7.239 13.974L7.027 14.764L7.002 14.879C7.002 14.965 7.072 15.035 7.158 15.035L7.249 15.006L8.277 14.412C8.355 14.367 8.437 14.34 8.527 14.34L8.665 14.361C9.145 14.499 9.663 14.575 10.199 14.575L10.457 14.569C10.355 14.264 10.299 13.942 10.299 13.61C10.299 11.637 12.218 10.038 14.584 10.038L14.84 10.045C14.486 8.175 12.543 6.744 10.199 6.744V6.744ZM13.279 13.088C12.991 13.088 12.757 12.854 12.757 12.565C12.757 12.277 12.991 12.043 13.279 12.043C13.568 12.043 13.801 12.277 13.801 12.565C13.801 12.854 13.568 13.088 13.279 13.088ZM15.89 13.088C15.601 13.088 15.368 12.854 15.368 12.565C15.368 12.277 15.601 12.043 15.89 12.043C16.178 12.043 16.412 12.277 16.412 12.565C16.412 12.854 16.178 13.088 15.89 13.088ZM8.633 10.033C8.287 10.033 8.006 9.753 8.006 9.407C8.006 9.061 8.287 8.78 8.633 8.78C8.978 8.78 9.259 9.061 9.259 9.407C9.259 9.753 8.978 10.033 8.633 10.033ZM11.765 10.033C11.419 10.033 11.138 9.753 11.138 9.407C11.138 9.061 11.419 8.78 11.765 8.78C12.111 8.78 12.392 9.061 12.392 9.407C12.392 9.753 12.111 10.033 11.765 10.033Z" fill="black"/>
</svg>
