<svg width="100" height="125" viewBox="0 0 100 125" fill="none" xmlns="http://www.w3.org/2000/svg">
<path fill-rule="evenodd" clip-rule="evenodd" d="M83.2928 4.99854C83.2195 4.99985 83.1471 5.01438 83.0789 5.0415L81.5276 5.66223L78.8356 6.69751C78.7324 6.73719 78.6419 6.80429 78.574 6.8916L77.8483 7.82495C77.7964 7.89174 77.759 7.96863 77.7385 8.05072C77.718 8.13281 77.7148 8.21827 77.7293 8.30164C77.7437 8.385 77.7754 8.46444 77.8223 8.53485C77.8692 8.60526 77.9303 8.66508 78.0017 8.71051L78.3743 8.94751L77.2265 9.75153L76.2009 9.66553C76.0446 9.6525 75.8893 9.70044 75.7675 9.79932L74.4057 10.9059L72.7818 10.1367C72.6966 10.0963 72.6032 10.0763 72.509 10.0782C72.4148 10.0801 72.3223 10.1039 72.2389 10.1477L70.2686 11.1846C70.1412 11.2517 70.0417 11.362 69.9879 11.4957C69.9342 11.6293 69.9297 11.7777 69.9752 11.9144L70.3431 13.018L69.2454 13.7114L68.235 12.39C68.1513 12.2806 68.033 12.2029 67.8994 12.1696L65.826 11.6513C65.7364 11.6289 65.6429 11.6273 65.5526 11.6464C65.4622 11.6656 65.3774 11.7051 65.3047 11.7619C65.2319 11.8187 65.173 11.8914 65.1325 11.9744C65.092 12.0574 65.071 12.1485 65.071 12.2408V12.4621L64.0922 12.8817L62.2885 12.9436L62.9919 11.7124C63.0653 11.5838 63.0893 11.433 63.0593 11.288C63.0293 11.143 62.9474 11.0139 62.829 10.925L61.9995 10.3029C61.9414 10.2593 61.876 10.2265 61.8064 10.2059L60.0438 9.68762C59.9003 9.64526 59.7462 9.65737 59.611 9.72162L57.4495 10.7509L54.6664 11.8846C54.5639 11.9265 54.4748 11.9956 54.4087 12.0844C54.3427 12.1731 54.3021 12.2783 54.2914 12.3884L52.5882 12.4624C52.4931 12.4665 52.4004 12.493 52.3174 12.5395C52.2344 12.586 52.1635 12.6513 52.1104 12.7303C52.0573 12.8092 52.0235 12.8996 52.0116 12.994C51.9998 13.0884 52.0103 13.1842 52.0423 13.2738L52.1788 13.6562L51.6967 13.5354L50.9823 13.1459L51.041 12.6178C51.0535 12.5044 51.0339 12.3897 50.9843 12.2869C50.9346 12.1841 50.8571 12.0974 50.7604 12.0366C50.6638 11.9759 50.552 11.9436 50.4379 11.9434C50.3238 11.9433 50.2119 11.9752 50.1151 12.0357L46.7971 14.1093C46.7753 14.1229 46.7544 14.1379 46.7345 14.1542L44.5347 15.9539L41.7308 16.9554C41.651 16.9839 41.5781 17.0287 41.5166 17.0871L39.4429 19.057C39.4235 19.0755 39.4054 19.0952 39.3886 19.116L36.9612 22.126L35.8748 22.21C35.7222 22.2218 35.5796 22.2907 35.4756 22.403C35.3716 22.5153 35.3138 22.6628 35.3138 22.8159V24.0031L34.1221 23.8708C34.0372 23.8614 33.9512 23.87 33.8699 23.8961C33.7885 23.9221 33.7136 23.965 33.6499 24.022C33.5862 24.0789 33.5353 24.1487 33.5004 24.2267C33.4655 24.3047 33.4475 24.3891 33.4474 24.4745V25.8226C33.4475 25.9199 33.4708 26.0157 33.5156 26.1021C33.5604 26.1885 33.6252 26.2628 33.7047 26.3189L34.6653 26.9971L34.1817 27.2576C34.0722 27.3166 33.9835 27.4078 33.9275 27.5188C33.8714 27.6298 33.8508 27.7554 33.8684 27.8785L34.0405 29.0824L33.8649 29.0244L33.5516 28.7111C33.5054 28.665 33.4521 28.6267 33.3937 28.5975L33.0668 28.434L32.5856 27.3844C32.5449 27.2955 32.4833 27.2177 32.4061 27.1577C32.3289 27.0977 32.2383 27.0571 32.1421 27.0396L31.0652 26.8438L29.6219 26.2466C29.4989 26.1958 29.3627 26.1866 29.2341 26.2206C29.1054 26.2547 28.9915 26.33 28.9098 26.435L28.1842 27.3681C28.1322 27.4349 28.0947 27.5117 28.0741 27.5938L27.7929 28.7188L26.9334 29.8648C26.8779 29.9388 26.8399 30.0246 26.8226 30.1155C26.8052 30.2065 26.8088 30.3001 26.8332 30.3894L26.9886 30.9597C27.012 31.0452 27.0538 31.1245 27.1111 31.1922L27.3897 31.5215L27.1565 31.8798L26.0096 31.8008C25.9145 31.7943 25.8192 31.8102 25.7313 31.8473C25.6435 31.8844 25.5657 31.9416 25.5041 32.0144L24.9339 32.6885C24.8917 32.7384 24.8578 32.7946 24.8336 32.8552L24.4185 33.8922C24.3828 33.9816 24.3688 34.0783 24.3778 34.1743C24.3867 34.2702 24.4184 34.3626 24.4701 34.4439L24.976 35.2387L24.6959 35.6309C24.6134 35.7466 24.574 35.8877 24.5847 36.0294C24.5953 36.1712 24.6554 36.3047 24.7543 36.4067C24.689 36.4331 24.6288 36.4706 24.5763 36.5176L24.0577 36.984C23.9818 37.0523 23.9244 37.1387 23.8907 37.2351C23.857 37.3315 23.8481 37.4348 23.8649 37.5355L23.9936 38.3065L23.2692 40.2127L22.6933 40.0355L21.8303 38.5446L22.2747 37.5812L22.7168 37.1394L22.8743 36.9819L23.1769 36.9519C23.2779 36.9418 23.3747 36.9066 23.4585 36.8494C23.5424 36.7923 23.6106 36.7151 23.6569 36.6248C23.7033 36.5346 23.7263 36.4341 23.7238 36.3327C23.7214 36.2313 23.6936 36.1321 23.643 36.0441L22.8209 34.6162L22.7785 34.7012C22.8149 34.6285 22.8364 34.5492 22.8416 34.468C22.8468 34.3868 22.8356 34.3054 22.8088 34.2286L22.1033 32.2127L21.9559 31.1328C21.9436 31.0431 21.9115 30.9572 21.8619 30.8815L20.8727 29.3745V28.6749C20.8724 28.6545 20.8711 28.6342 20.8687 28.614C20.8618 28.5534 20.8458 28.4943 20.8212 28.4385C20.805 28.4014 20.785 28.3661 20.7616 28.3329C20.75 28.3163 20.7375 28.3003 20.7242 28.2849C20.671 28.2234 20.6059 28.1733 20.5329 28.1375C20.4965 28.1197 20.4584 28.1056 20.4193 28.0954C20.3997 28.0901 20.3799 28.0857 20.36 28.0824C20.34 28.078 20.3198 28.0748 20.2995 28.0724C20.2589 28.0717 20.2183 28.075 20.1784 28.0824C20.0979 28.0939 20.0205 28.1215 19.9509 28.1635C19.9336 28.1739 19.9169 28.1853 19.9008 28.1974C19.8682 28.2217 19.8382 28.2492 19.8112 28.2794C19.7977 28.2944 19.7851 28.3101 19.7732 28.3264C19.7494 28.3593 19.7289 28.3945 19.7121 28.4315C19.6869 28.4868 19.6703 28.5456 19.6626 28.606C19.6599 28.6262 19.6582 28.6465 19.6576 28.6669C19.6575 28.6703 19.6574 28.6736 19.6573 28.6769V29.558V30.5094L19.5442 31.5291L19.5139 31.5432H18.9974L18.3824 30.544L18.2285 30.082V29.0401C18.2285 28.9446 18.206 28.8505 18.1629 28.7654C18.1197 28.6802 18.0571 28.6065 17.9801 28.55L17.2029 27.9798C17.1331 27.9287 17.0532 27.8931 16.9685 27.8754L16.2428 27.7227L15.9126 27.1723C15.8322 27.0386 15.7033 26.941 15.5528 26.8997C15.4023 26.8583 15.2417 26.8765 15.1042 26.9504L15.0022 26.7466C14.9407 26.6237 14.8394 26.5252 14.7148 26.4673C14.5901 26.4093 14.4495 26.3953 14.3159 26.4276L13.6579 26.5866C13.5311 26.6173 13.4175 26.6881 13.334 26.7885L11.5008 28.9876C11.4017 29.1065 11.3518 29.2588 11.3611 29.4133L11.5079 31.833C11.5173 31.9875 11.5853 32.1326 11.698 32.2386C11.8107 32.3447 11.9596 32.4038 12.1143 32.4038H12.454L12.5374 33.1134C12.5488 33.2098 12.583 33.3022 12.6374 33.3827C12.6917 33.4632 12.7646 33.5294 12.8498 33.5759L13.5547 33.9604L13.7375 34.1801L13.4393 34.3405C13.3031 34.4138 13.2 34.5364 13.1509 34.6831L12.8424 35.609L10.6408 37.3291C10.5285 37.4169 10.4505 37.5413 10.4207 37.6807L10.013 39.5827L9.2337 40.4917C9.16539 40.5714 9.11889 40.6674 9.09872 40.7704C9.07854 40.8734 9.08539 40.9798 9.11859 41.0794L9.29066 41.595L8.65608 45.3311C8.64263 45.4111 8.64535 45.4929 8.66408 45.5719L8.92248 46.6707L8.22798 49.3105C8.20956 49.3807 8.20384 49.4535 8.21108 49.5256L8.43091 51.7248C8.43222 51.7368 8.43388 51.7489 8.43591 51.7608L8.98891 55.2174L8.43294 56.2059C8.38181 56.2969 8.35495 56.3994 8.35494 56.5037V59.4363C8.35493 59.5421 8.38254 59.6461 8.43504 59.7379C8.48754 59.8298 8.56311 59.9063 8.65428 59.96L9.9006 60.693C9.96797 60.7329 10.0424 60.7594 10.1198 60.771L12.0992 61.0644C12.1243 61.0693 12.1496 61.0727 12.1751 61.0744L15.5477 61.1474C15.5819 61.1469 15.6161 61.1436 15.6497 61.1374L19.6088 60.5508C19.7429 60.531 19.8664 60.4668 19.9598 60.3687L21.4138 58.842L22.5002 57.828C22.5831 57.7507 22.6427 57.6518 22.6723 57.5425C22.7019 57.4331 22.7004 57.3176 22.6678 57.2091L22.2279 55.7427C22.2073 55.6743 22.1749 55.61 22.1321 55.5528L21.3616 54.5257L21.3135 53.7318L24.509 56.1114C24.5832 56.1666 24.669 56.2042 24.7599 56.2212L27.9213 56.814L28.6914 59.2529C28.7296 59.3739 28.8047 59.4799 28.9062 59.5561L29.4444 59.9596C29.3221 60.042 29.2339 60.1661 29.1964 60.3088C29.1588 60.4514 29.1744 60.6028 29.2403 60.7348L30.1935 62.6409C30.244 62.7418 30.3216 62.8267 30.4175 62.886C30.5135 62.9453 30.6242 62.9768 30.737 62.9767H31.7635C31.7854 62.9779 31.8074 62.9779 31.8294 62.9767L31.6807 63.7202C31.6696 63.7757 31.6662 63.8326 31.6707 63.889L32.0374 68.361C32.041 68.4042 32.0491 68.4469 32.0617 68.4883C32.0617 68.4883 32.4466 69.7528 32.8405 71.0536C33.0374 71.704 33.2367 72.3636 33.3911 72.8782C33.5455 73.3927 33.6697 73.824 33.6664 73.8109C33.7194 74.0227 33.7895 74.1747 33.9047 74.4678C34.0198 74.7609 34.1646 75.1198 34.3072 75.4694C34.5924 76.1685 34.8683 76.8298 34.8683 76.8298C34.9014 76.9093 34.9511 76.9808 35.014 77.0397C35.0769 77.0985 35.1516 77.1432 35.2331 77.171C35.3146 77.1988 35.4011 77.2089 35.4868 77.2007C35.5726 77.1925 35.6556 77.1662 35.7304 77.1235L37.2701 76.2439C37.3044 76.2241 37.3367 76.201 37.3665 76.1749L38.4663 75.222C38.5273 75.1692 38.5771 75.1047 38.6129 75.0323C38.6487 74.96 38.6698 74.8812 38.6748 74.8007L38.7407 73.7426L39.2053 72.7468C39.2507 72.6495 39.2696 72.542 39.2599 72.4351L39.0902 70.569L39.3501 70.522C39.4514 70.5036 39.5463 70.4596 39.626 70.3944L40.3075 69.837L41.0275 69.7171C41.1525 69.6962 41.2678 69.6368 41.3574 69.5471L41.6944 69.2101L43.9924 67.4692L45.8656 66.9142C46.0115 66.8711 46.1359 66.7747 46.2142 66.6442L46.6539 65.9111C46.7277 65.7882 46.7556 65.643 46.7328 65.5014L47.0905 65.3225L49.6686 65.2525C49.8101 65.2487 49.9457 65.1956 50.0522 65.1024L50.3952 64.8022L50.7417 66.5934C50.768 66.7294 50.8401 66.8523 50.9458 66.9417L51.7987 67.6636L52.3627 68.8544L52.5514 70.1749L52.2936 71.0765C52.2493 71.2315 52.2685 71.3977 52.3467 71.5385C52.425 71.6794 52.556 71.7834 52.711 71.8276L53.7375 72.121C53.8181 72.1441 53.9026 72.1502 53.9858 72.139C54.0689 72.1279 54.1488 72.0996 54.2205 72.056L55.4733 71.2932L55.8335 71.7736L55.7222 72.5508C55.7048 72.6731 55.7251 72.7978 55.7803 72.9083L56.3511 74.0502L56.5804 74.6809L56.5289 75.0435C56.5134 75.1517 56.5274 75.2621 56.5695 75.363L56.8151 75.9534L56.6148 76.2738C56.5525 76.3736 56.5204 76.4893 56.5225 76.6069L56.5691 79.1343C56.5708 79.2235 56.592 79.3114 56.6314 79.3915C56.6708 79.4716 56.7273 79.542 56.797 79.5978L58.2029 80.7224L59.1858 84.0641C59.2285 84.2094 59.3239 84.3335 59.4534 84.4121L62.3563 86.1746C62.425 86.2162 62.5012 86.2438 62.5806 86.2559C62.66 86.2679 62.7409 86.2641 62.8188 86.2446L63.2339 86.1411C63.3192 86.1198 63.399 86.0802 63.4675 86.025C63.5361 85.9699 63.5918 85.9005 63.6309 85.8217C63.67 85.7428 63.6915 85.6564 63.694 85.5685C63.6964 85.4805 63.6797 85.3931 63.6451 85.3123L63.0583 83.9434L62.861 82.1666C62.8493 82.0624 62.8109 81.9629 62.7494 81.8779L61.4016 80.0115C61.3509 79.9413 61.2858 79.8828 61.2106 79.8398L60.0191 79.1589L59.904 78.3156C59.8883 78.1997 59.8395 78.0908 59.7634 78.002L59.3401 77.5082L59.7907 75.5253C59.8007 75.4811 59.8058 75.4359 59.8058 75.3906V75.3706C59.8663 75.4813 59.9596 75.5704 60.073 75.6256C60.1864 75.6808 60.3142 75.6995 60.4386 75.6788L61.1927 75.553L61.6894 76.8516C61.7181 76.9268 61.7616 76.9956 61.8172 77.054C61.8728 77.1123 61.9395 77.159 62.0133 77.1913L63.3083 77.7579V78.5011C63.3083 78.5973 63.3312 78.6923 63.3751 78.778C63.4189 78.8636 63.4825 78.9376 63.5606 78.9939C63.6387 79.0502 63.729 79.0871 63.8241 79.1017C63.9193 79.1162 64.0165 79.1079 64.1078 79.0775L65.3524 78.6628C65.4594 78.6271 65.5544 78.5623 65.6266 78.4756C65.6989 78.3889 65.7456 78.2838 65.7615 78.1721L65.8164 77.7894L68.5027 76.6777C68.6138 76.6318 68.7088 76.5538 68.7756 76.4539C68.8424 76.3539 68.8781 76.2363 68.878 76.1161V74.0427C68.8779 74.0129 68.8756 73.9832 68.871 73.9537L68.4563 71.154C68.4411 71.0514 68.3998 70.9545 68.3365 70.8723C68.2732 70.7902 68.19 70.7256 68.0947 70.6847L66.8059 70.1326L65.4973 68.2128L65.7094 67.2228L67.2079 65.9886L67.6031 65.8809L67.7796 66.7048C67.8012 66.8057 67.8481 66.8993 67.9159 66.977C67.9837 67.0547 68.0702 67.1138 68.1672 67.1489C68.2641 67.1839 68.3684 67.1937 68.4703 67.1773C68.5721 67.1609 68.668 67.1189 68.7491 67.0552L70.1467 65.9572L75.5797 63.3942C75.7093 63.3331 75.8131 63.2281 75.8728 63.0979L79.2943 55.6327C79.3571 55.4957 79.3667 55.3403 79.3213 55.1966L78.6995 53.2267C78.6865 53.1855 78.6691 53.1458 78.6476 53.1083L76.9886 50.2051C76.9394 50.119 76.8698 50.0462 76.786 49.9931C76.7022 49.94 76.6066 49.9083 76.5077 49.9007L76.1469 49.8727L77.0684 48.3588L77.9839 47.138C78.0516 47.0477 78.0929 46.9404 78.103 46.8281C78.1131 46.7157 78.0918 46.6027 78.0413 46.5018C77.9909 46.4008 77.9133 46.316 77.8174 46.2567C77.7214 46.1973 77.6108 46.1659 77.498 46.1658H75.839C75.7548 46.1659 75.6715 46.1834 75.5945 46.2173C75.5174 46.2512 75.4482 46.3008 75.3913 46.3629L74.9273 46.869L74.8549 46.6696C74.8123 46.5524 74.7346 46.4511 74.6325 46.3796C74.5303 46.308 74.4086 46.2696 74.2838 46.2697H74.113L74.1109 46.2437L74.1768 46.2326C74.3339 46.2064 74.4745 46.1196 74.5682 45.9908L75.684 44.4561L75.7588 44.9038C75.7753 45.0028 75.8161 45.0961 75.8775 45.1755C75.9388 45.2548 76.0189 45.3178 76.1106 45.3586C76.2022 45.3995 76.3026 45.4171 76.4026 45.4097C76.5027 45.4024 76.5994 45.3704 76.6841 45.3165L77.6925 44.6748L78.5498 44.6208V45.1678L78.4543 45.7404C78.439 45.8325 78.445 45.9269 78.4721 46.0163C78.4991 46.1057 78.5464 46.1876 78.6102 46.2557C78.674 46.3239 78.7526 46.3764 78.84 46.4092C78.9275 46.4421 79.0212 46.4543 79.1141 46.445L79.83 46.373L79.9638 46.5335L79.9059 46.8809C79.8815 47.0271 79.9114 47.1772 79.9899 47.3029L80.4518 48.0418L80.7405 49.389C80.7615 49.4873 80.8066 49.5788 80.8717 49.6553C80.9368 49.7319 81.0199 49.7911 81.1135 49.8277C81.2071 49.8643 81.3083 49.8771 81.4081 49.8649C81.5078 49.8528 81.603 49.8161 81.6851 49.7581L83.4476 48.5138C83.5271 48.4577 83.5919 48.3834 83.6367 48.297C83.6814 48.2106 83.7048 48.1148 83.7048 48.0175V46.6697C83.7048 46.6254 83.7 46.5813 83.6903 46.538L83.483 45.6047C83.4542 45.4751 83.3837 45.3585 83.2824 45.2727L81.9868 44.1765L81.3834 43.3716L82.1126 42.4967C82.1834 42.4118 82.2296 42.3092 82.2464 42.2L82.4452 40.9074L82.9143 39.5674L83.2171 39.7357C83.3325 39.7997 83.4657 39.8244 83.5964 39.8061C83.7271 39.7878 83.8483 39.7275 83.9416 39.6342L84.9785 38.5972C85.0877 38.488 85.1512 38.3414 85.1562 38.187L85.3636 31.6548C85.3658 31.5831 85.3554 31.5114 85.3327 31.4433L84.7105 29.5772C84.7034 29.5558 84.6951 29.5347 84.6857 29.5142L84.0638 28.1665C84.057 28.1519 84.0496 28.1376 84.0416 28.1235L83.1086 26.4646C83.0657 26.3883 83.0068 26.3222 82.9359 26.2708C82.865 26.2193 82.7839 26.1838 82.698 26.1666L81.6611 25.9592C81.5187 25.9308 81.3708 25.9543 81.2442 26.0255C81.1176 26.0966 81.0207 26.2109 80.9711 26.3474L80.8011 26.8148L80.076 26.4069V25.1567L80.6483 21.9132L82.7535 20.2658L83.7755 19.9869C83.9041 19.9519 84.0175 19.8755 84.0984 19.7697C84.1793 19.6638 84.2231 19.5342 84.2232 19.401V18.9863C84.2232 18.97 84.2225 18.9536 84.2212 18.9373L84.0607 16.9318C84.1412 16.9736 84.23 16.9969 84.3206 16.9999C84.4112 17.0029 84.5014 16.9856 84.5844 16.9492C84.6675 16.9129 84.7414 16.8584 84.8007 16.7897C84.8599 16.7211 84.9031 16.6401 84.927 16.5526L85.0946 17.3483C85.0969 17.3601 85.0996 17.3717 85.1026 17.3833L85.725 19.6644C85.7257 19.6678 85.7263 19.6711 85.727 19.6744L85.9344 20.4C85.9582 20.4831 85.9995 20.5602 86.0554 20.6261L88.9584 24.0479C88.9866 24.0809 89.0182 24.1107 89.0528 24.1369L90.8153 25.485C90.9185 25.564 91.0444 25.6077 91.1744 25.6099C91.3043 25.612 91.4316 25.5723 91.5373 25.4968C91.6431 25.4213 91.7219 25.3139 91.7621 25.1903C91.8024 25.0667 91.8019 24.9334 91.7608 24.8101L90.9387 22.3438L90.6334 21.1224C90.6325 21.1181 90.6315 21.1138 90.6304 21.1094L90.3192 19.9691C90.2955 19.8822 90.2529 19.8017 90.1943 19.7334L89.7188 19.1783V18.3663C89.7188 18.2463 89.6832 18.129 89.6167 18.0292C89.5501 17.9293 89.4554 17.8514 89.3446 17.8053L88.2826 17.3627L87.3688 15.8676L87.8405 13.5086C87.8576 13.4236 87.8562 13.3359 87.8365 13.2514L87.1109 10.1408C87.0892 10.048 87.046 9.96164 86.9848 9.88861C86.9236 9.81558 86.846 9.75793 86.7584 9.7204L84.7654 8.86633L84.4993 8.41003L85.7026 7.9422C85.8018 7.90361 85.8891 7.83967 85.9558 7.75671C86.0226 7.67376 86.0663 7.57473 86.0827 7.46954C86.0991 7.36436 86.0876 7.25668 86.0493 7.15735C86.011 7.05801 85.9473 6.97047 85.8645 6.9035L83.687 5.14105C83.5757 5.05094 83.4362 5.00301 83.293 5.00574L83.2928 4.99854ZM83.1993 6.30243L84.2858 7.18201L83.3954 7.5282C83.3136 7.56004 83.2397 7.60926 83.1787 7.67242C83.1177 7.73559 83.0711 7.81121 83.0421 7.8941C83.0132 7.977 83.0025 8.06518 83.0109 8.15259C83.0193 8.23999 83.0466 8.32458 83.0908 8.40045L83.8167 9.64471C83.8823 9.75731 83.9824 9.84583 84.1021 9.89722L85.997 10.7091L86.6229 13.3922L86.1305 15.8552C86.1006 16.0051 86.1282 16.1606 86.2079 16.291L87.3483 18.1574C87.4151 18.2668 87.5148 18.3523 87.6331 18.4016L88.5035 18.7641V19.3961C88.5036 19.541 88.5554 19.6811 88.6498 19.7912L89.1829 20.4133L89.4561 21.4157L89.7658 22.6538C89.7696 22.669 89.7739 22.684 89.7788 22.6989L89.983 23.3115L89.8429 23.2044L87.067 19.9327L86.8967 19.3364L86.2802 17.076L85.8693 15.1237C85.8554 15.0575 85.8305 14.9941 85.7957 14.9362L85.1733 13.8994C85.1087 13.7918 85.0124 13.7069 84.8976 13.6563C84.7828 13.6057 84.6552 13.5919 84.5322 13.6167C84.4092 13.6415 84.297 13.7038 84.2108 13.795C84.1246 13.8862 84.0688 14.0017 84.051 14.1259L83.9522 14.8172C83.8793 14.8557 83.815 14.9087 83.7632 14.9729L82.9337 16.0098C82.8371 16.1306 82.7902 16.2837 82.8026 16.4379L83.0022 18.9335L82.3151 19.121C82.2372 19.1423 82.1643 19.1789 82.1006 19.2287L79.716 21.095C79.5979 21.1875 79.5181 21.3203 79.492 21.468L78.8699 24.993C78.8638 25.0279 78.8608 25.0632 78.8609 25.0986V26.7576C78.8609 26.8654 78.8896 26.9713 78.944 27.0644C78.9984 27.1575 79.0767 27.2344 79.1706 27.2872L80.8296 28.2205C80.9065 28.2637 80.9918 28.2897 81.0797 28.2966C81.1676 28.3036 81.256 28.2913 81.3387 28.2606C81.4214 28.23 81.4964 28.1816 81.5585 28.1191C81.6207 28.0565 81.6685 27.9812 81.6986 27.8983L81.9347 27.2487L82.1863 27.2986L82.9707 28.6933L83.5685 29.9886L84.1458 31.7199L83.9494 37.9032L83.4065 38.4458L82.874 38.15C82.7966 38.1071 82.7108 38.0816 82.6225 38.0753C82.5342 38.0689 82.4457 38.082 82.363 38.1135C82.2803 38.1449 82.2054 38.1941 82.1437 38.2575C82.082 38.3209 82.0349 38.397 82.0056 38.4805L81.2797 40.5543C81.2674 40.5895 81.2583 40.6257 81.2527 40.6625L81.0711 41.8436L80.1422 42.9579C80.0547 43.063 80.0051 43.1946 80.0016 43.3313C79.9981 43.468 80.0409 43.602 80.1229 43.7114L81.056 44.9557C81.0834 44.9922 81.1148 45.0254 81.1497 45.0547L82.3414 46.0627L82.4897 46.7311V47.6974L81.7359 48.2293L81.6178 47.6775C81.603 47.6085 81.5763 47.5427 81.5389 47.4829L81.1423 46.8483L81.2085 46.4532C81.2228 46.367 81.2184 46.2786 81.1955 46.1943C81.1726 46.1099 81.1318 46.0315 81.0758 45.9644L80.5573 45.3421C80.4937 45.2659 80.4124 45.2064 80.3205 45.1688C80.2286 45.1313 80.1289 45.1168 80.0301 45.1267L79.7652 45.1527V43.9681C79.7651 43.8852 79.7481 43.803 79.7152 43.7269C79.6822 43.6507 79.634 43.5821 79.5735 43.5253C79.513 43.4685 79.4416 43.4247 79.3635 43.3965C79.2854 43.3684 79.2024 43.3566 79.1196 43.3618L77.4606 43.4656C77.3581 43.4721 77.2589 43.5044 77.1722 43.5596L76.8064 43.7925L76.7497 43.4537C76.7339 43.3593 76.696 43.2699 76.6391 43.1929C76.5822 43.1158 76.5079 43.0533 76.4222 43.0105L76.0075 42.8031C75.8788 42.7388 75.7316 42.7222 75.5919 42.7563C75.4522 42.7903 75.329 42.8729 75.2444 42.9891L73.732 45.0692L73.3549 45.1321C73.2037 45.1574 73.0676 45.2388 72.9739 45.3602C72.8802 45.4815 72.8358 45.6338 72.8497 45.7865L72.9535 46.9269C72.9672 47.0779 73.0369 47.2183 73.1488 47.3206C73.2607 47.4229 73.4068 47.4797 73.5584 47.4797H73.8587L74.1281 48.2201C74.1637 48.3182 74.2241 48.4055 74.3033 48.4734C74.3825 48.5414 74.4779 48.5879 74.5803 48.6083C74.6827 48.6287 74.7886 48.6223 74.8878 48.5899C74.9871 48.5575 75.0762 48.5 75.1468 48.4231L76.1068 47.3759H76.2834L76.0793 47.6479C76.0675 47.6637 76.0565 47.68 76.0464 47.6969L74.5947 50.0819C74.5408 50.1707 74.5105 50.2718 74.5068 50.3755C74.503 50.4793 74.526 50.5824 74.5734 50.6748C74.6208 50.7672 74.6911 50.8459 74.7775 50.9034C74.864 50.961 74.9638 50.9953 75.0674 51.0033L76.0938 51.0823L77.5609 53.6491L78.0928 55.3339L74.8615 62.3847L69.5667 64.882C69.5254 64.9016 69.4864 64.9257 69.4505 64.954L68.7645 65.4931L68.6574 64.9935C68.6401 64.9127 68.6066 64.8363 68.5587 64.7689C68.5109 64.7015 68.4498 64.6446 68.3792 64.6017C68.3086 64.5587 68.23 64.5306 68.1482 64.519C68.0663 64.5075 67.983 64.5128 67.9033 64.5345L66.7629 64.8454C66.68 64.868 66.6029 64.908 66.5366 64.9626L64.774 66.4142C64.6681 66.5014 64.5948 66.6219 64.566 66.756L64.2551 68.2076C64.2379 68.2881 64.2371 68.3712 64.2529 68.4519C64.2688 68.5326 64.3008 68.6093 64.3471 68.6773L65.9026 70.9581C65.9677 71.0537 66.0588 71.1287 66.1651 71.1743L67.3047 71.6627L67.663 74.0823V75.7051L65.0316 76.7939C64.934 76.8343 64.8487 76.8994 64.784 76.9828C64.7193 77.0662 64.6774 77.165 64.6625 77.2695L64.6118 77.6234L64.5237 77.6525V77.3549C64.5237 77.2368 64.4892 77.1212 64.4246 77.0223C64.3599 76.9235 64.2679 76.8457 64.1597 76.7983L62.7339 76.1744L62.1506 74.6495C62.1005 74.5187 62.0067 74.4091 61.8851 74.3395C61.7635 74.2698 61.6216 74.2445 61.4834 74.2675L60.872 74.3691L60.8391 74.0736C60.8225 73.925 60.7518 73.7877 60.6404 73.688C60.5291 73.5883 60.3848 73.5331 60.2353 73.5331H59.1985C59.0373 73.5331 58.8828 73.5971 58.7689 73.7111C58.6549 73.825 58.5909 73.9796 58.5909 74.1407V75.3168L58.0874 77.5314C58.0664 77.6239 58.0674 77.7199 58.0902 77.812C58.113 77.9041 58.1571 77.9895 58.2188 78.0615L58.7244 78.6514L58.8558 79.6143C58.8598 79.6423 58.8658 79.67 58.8736 79.6973L57.7789 78.8217L57.7412 76.7594L58.0121 76.326C58.0635 76.2438 58.0945 76.1504 58.1024 76.0537C58.1104 75.957 58.095 75.8598 58.0578 75.7703L57.7555 75.0447L57.8052 74.6969C57.8194 74.598 57.8088 74.4971 57.7747 74.4032L57.4812 73.5966C57.4734 73.5747 57.4643 73.5534 57.4539 73.5326L56.9523 72.5292L57.0718 71.6907C57.0946 71.5312 57.0531 71.3691 56.9564 71.2402L56.0768 70.0672C56.0003 69.9651 55.8936 69.8898 55.7718 69.8517C55.6501 69.8137 55.5195 69.8149 55.3984 69.8552C55.2774 69.8956 55.1722 69.973 55.0976 70.0765C55.023 70.18 54.9829 70.3043 54.9829 70.4318V70.1636L53.8156 70.8741L53.6289 70.8211L53.7553 70.3791C53.7789 70.297 53.7848 70.2109 53.7728 70.1263L53.5527 68.5866C53.5441 68.5263 53.5265 68.4675 53.5005 68.4124L52.8407 67.0196C52.8036 66.9412 52.7502 66.8717 52.6841 66.8157L51.8943 66.1473L51.495 64.0849C51.4703 63.9577 51.4056 63.8417 51.3104 63.7538C51.2151 63.666 51.0942 63.6109 50.9654 63.5966L50.3056 63.5226C50.2218 63.5134 50.137 63.5216 50.0566 63.5469C49.9761 63.5721 49.9018 63.6139 49.8384 63.6694L49.4168 64.0385L46.923 64.1055C46.8343 64.108 46.7472 64.1298 46.6679 64.1695L45.7879 64.6095C45.6717 64.6676 45.5772 64.7615 45.5182 64.8773C45.4593 64.9931 45.439 65.1248 45.4604 65.253L45.4969 65.4719L45.2937 65.8107L43.5409 66.3299C43.4708 66.3506 43.405 66.3838 43.3466 66.4279L40.9273 68.2607C40.9052 68.2776 40.8842 68.296 40.8647 68.3157L40.6356 68.5444L39.9479 68.6593C39.8434 68.6767 39.7452 68.7212 39.6631 68.7883L38.9781 69.3487L38.3263 69.4671C38.1771 69.4943 38.0433 69.5764 37.9515 69.6971C37.8596 69.8179 37.8163 69.9687 37.83 70.1198L38.035 72.376L37.5912 73.3271C37.5589 73.3961 37.5399 73.4703 37.5351 73.5463L37.4778 74.4648L36.6157 75.2122L35.7274 75.7198C35.6219 75.4648 35.5823 75.3714 35.4325 75.0043C35.291 74.6574 35.1473 74.3014 35.0356 74.0172C34.9239 73.7329 34.8291 73.4446 34.8454 73.5098C34.8054 73.3501 34.7099 73.0393 34.555 72.5228C34.4 72.0064 34.2006 71.3462 34.0035 70.6953C33.6188 69.4252 33.2612 68.2506 33.2431 68.1911L32.8889 63.8686L33.3122 61.7527C33.3347 61.6403 33.3249 61.5238 33.2839 61.4167C33.243 61.3096 33.1725 61.2163 33.0808 61.1475L32.7874 60.9277C32.722 60.8787 32.6474 60.8434 32.5681 60.8239C32.4887 60.8044 32.4063 60.8011 32.3256 60.8142C32.245 60.8273 32.1678 60.8565 32.0987 60.9001C32.0296 60.9438 31.97 61.0008 31.9235 61.068L31.4447 61.7593H31.1124L30.7392 61.0131L31.0658 60.9941C31.19 60.9868 31.309 60.9414 31.4066 60.8643C31.5043 60.7871 31.5758 60.6818 31.6117 60.5626C31.6476 60.4435 31.646 60.3161 31.6071 60.1979C31.5683 60.0796 31.4941 59.9762 31.3945 59.9015L29.7913 58.6988L28.9701 56.0991C28.937 55.9943 28.8761 55.9003 28.7938 55.8274C28.7115 55.7544 28.6109 55.7052 28.5029 55.6849L25.1217 55.0509L22.141 52.8312L22.5154 51.7086C22.5459 51.6173 22.5542 51.52 22.5397 51.4248C22.5252 51.3296 22.4882 51.2393 22.4319 51.1612C22.3756 51.0831 22.3016 51.0195 22.2159 50.9756C22.1302 50.9317 22.0353 50.9088 21.939 50.9088H20.2931L19.935 50.039C19.9104 49.9792 19.8765 49.9237 19.8344 49.8746L18.6554 48.4992L18.5875 45.7827C18.5847 45.6724 18.552 45.5651 18.4928 45.472C18.4337 45.379 18.3503 45.3038 18.2517 45.2545L17.2252 44.7413C17.1394 44.6985 17.0447 44.6765 16.9488 44.6772C16.8529 44.678 16.7586 44.7015 16.6735 44.7457C16.5884 44.7899 16.5149 44.8536 16.4592 44.9316C16.4034 45.0097 16.367 45.0998 16.3527 45.1946L15.9127 48.1272C15.9018 48.201 15.9045 48.2763 15.9207 48.3491L16.1993 49.6037V49.99L16.0646 50.6643C16.0341 50.818 16.0641 50.9775 16.1484 51.1096C16.2327 51.2417 16.3648 51.3361 16.5171 51.3731L16.4943 51.6932C16.4917 51.7313 16.4927 51.7695 16.4973 51.8074L16.6438 53.0537C16.6575 53.1697 16.7043 53.2793 16.7786 53.3694C16.853 53.4595 16.9517 53.5262 17.063 53.5616L18.676 54.0749C18.7628 54.1026 18.8547 54.1104 18.945 54.0978C19.0352 54.0851 19.1214 54.0524 19.1973 54.0019L20.0772 53.4154L20.16 54.7795C20.1671 54.8982 20.2089 55.0121 20.2801 55.1073L21.0951 56.1937L21.3956 57.1953L20.5718 57.9642C20.563 57.9723 20.5545 57.9806 20.5463 57.9892L19.2243 59.3773L15.5227 59.9255L12.2398 59.8545L10.4149 59.5843L9.57031 59.0873V56.6612L10.1521 55.627C10.2193 55.5074 10.2441 55.3685 10.2224 55.233L9.63883 51.5851L9.43146 49.5126L10.1366 46.8324C10.162 46.7363 10.1634 46.6355 10.1406 46.5388L9.87573 45.412L10.515 41.6475C10.5317 41.5492 10.5238 41.4484 10.4922 41.3538L10.3813 41.0203L11.0372 40.2549C11.1031 40.1781 11.1486 40.0859 11.1698 39.987L11.5635 38.1497L13.7358 36.4528C13.83 36.3792 13.9003 36.2794 13.9381 36.166L14.2285 35.2948L14.9693 34.8958C15.0486 34.8531 15.1174 34.7934 15.1708 34.7208C15.2241 34.6483 15.2607 34.5647 15.2778 34.4763C15.2949 34.3879 15.2922 34.2968 15.2698 34.2096C15.2474 34.1224 15.2058 34.0413 15.1482 33.972L14.4148 33.0921C14.3659 33.0334 14.3063 32.9845 14.2392 32.9479L13.7085 32.6583L13.5987 31.7238C13.5813 31.576 13.5102 31.4398 13.3989 31.3409C13.2877 31.2421 13.1441 31.1874 12.9953 31.1874H12.6873L12.5897 29.5792L14.1345 27.7256L14.3312 28.1184C14.3695 28.195 14.4237 28.2626 14.49 28.3168C14.5564 28.371 14.6334 28.4105 14.7161 28.4329C14.7988 28.4552 14.8853 28.4598 14.9699 28.4464C15.0545 28.4329 15.1353 28.4017 15.207 28.3548L15.3384 28.574C15.3814 28.6457 15.4388 28.7077 15.5069 28.7562C15.575 28.8047 15.6523 28.8387 15.7341 28.856L16.5909 29.0363L17.0143 29.3469V30.1793C17.0143 30.2447 17.0248 30.3096 17.0455 30.3716L17.2528 30.9937C17.2676 31.038 17.2874 31.0804 17.3118 31.1201L18.1413 32.468C18.1957 32.5563 18.2718 32.6292 18.3624 32.6799C18.453 32.7305 18.555 32.7571 18.6587 32.7571H19.644C19.729 32.7569 19.8129 32.7388 19.8905 32.7041L20.3572 32.4967C20.4541 32.4536 20.5381 32.3859 20.6008 32.3003C20.6635 32.2147 20.7026 32.1142 20.7144 32.0087L20.7752 31.4616L20.9081 32.4384C20.9136 32.4788 20.9231 32.5185 20.9366 32.557L21.5777 34.388L21.589 34.3651C21.5441 34.4548 21.5221 34.5542 21.525 34.6545C21.5279 34.7549 21.5556 34.8529 21.6056 34.9399L22.1886 35.9522C22.182 35.9581 22.1756 35.9641 22.1693 35.9702L21.858 36.2814L21.3398 36.7997C21.2891 36.8504 21.2478 36.9097 21.2178 36.9747L20.5954 38.3228C20.5546 38.4112 20.5357 38.5081 20.5402 38.6054C20.5447 38.7027 20.5725 38.7974 20.6212 38.8817L21.7619 40.8516C21.8386 40.9843 21.9626 41.083 22.109 41.1281L23.4571 41.5426C23.6046 41.5879 23.7638 41.5754 23.9025 41.5076C24.0411 41.4398 24.1487 41.3219 24.2035 41.1776L25.1885 38.5856C25.2267 38.4851 25.2376 38.3762 25.22 38.27L25.2046 38.178L26.1456 37.9798C26.2886 37.9497 26.416 37.8691 26.5044 37.7527C26.5928 37.6363 26.6362 37.492 26.6268 37.3461L26.523 35.7391C26.5178 35.6586 26.4965 35.5799 26.4606 35.5077C26.4246 35.4355 26.3746 35.3711 26.3135 35.3184C26.3267 35.1835 26.2945 35.0481 26.2218 34.9337L25.6632 34.0557L25.9258 33.3995L26.2337 33.0358L27.4302 33.1178C27.5382 33.1252 27.6463 33.1037 27.7432 33.0553C27.8402 33.0069 27.9224 32.9335 27.9814 32.8427L28.6554 31.8059C28.7266 31.6964 28.7606 31.5669 28.7523 31.4366C28.7441 31.3062 28.6941 31.182 28.6097 31.0823L28.1265 30.5112L28.0844 30.3575L28.8394 29.351C28.8879 29.2862 28.923 29.2124 28.9426 29.1339L29.2227 28.0139L29.5855 27.5475L30.6612 27.9926C30.701 28.0089 30.7424 28.0209 30.7847 28.0285L31.6136 28.1793L32.0521 29.1354C32.1098 29.2613 32.2088 29.3637 32.3327 29.4256L32.7629 29.6411L33.1076 29.9857C33.1743 30.0524 33.2557 30.1027 33.3452 30.1325L34.5895 30.5473C34.6877 30.58 34.7927 30.5871 34.8944 30.5679C34.9962 30.5486 35.0913 30.5037 35.1708 30.4374C35.2503 30.371 35.3115 30.2855 35.3487 30.1888C35.3858 30.0922 35.3977 29.9876 35.3831 29.8851L35.1321 28.1273L36.1064 27.6028C36.1975 27.5538 36.2746 27.4822 36.3303 27.395C36.3861 27.3078 36.4186 27.2078 36.4249 27.1044C36.4311 27.0011 36.4108 26.8979 36.366 26.8046C36.3212 26.7113 36.2532 26.631 36.1687 26.5714L34.6633 25.5089V25.1547L35.8551 25.287C35.94 25.2965 36.026 25.2878 36.1074 25.2618C36.1888 25.2357 36.2637 25.1928 36.3274 25.1358C36.3911 25.0788 36.442 25.009 36.4768 24.931C36.5117 24.853 36.5297 24.7685 36.5297 24.683V23.3795L37.3168 23.3184C37.3994 23.3121 37.4798 23.2889 37.5531 23.2503C37.6264 23.2117 37.6911 23.1586 37.7431 23.0941L40.3099 19.9111L42.2611 18.0576L45.0433 17.0639C45.1088 17.0405 45.1699 17.006 45.2237 16.9619L47.4748 15.1202L49.7631 13.6899C49.8131 13.83 49.9127 13.9468 50.0431 14.0183L51.1835 14.6404C51.2289 14.6652 51.2773 14.6839 51.3274 14.6964L52.9864 15.1109C53.0931 15.1375 53.2049 15.1347 53.3101 15.1027C53.4153 15.0708 53.5098 15.0109 53.5837 14.9294C53.6575 14.848 53.7078 14.7481 53.7294 14.6403C53.7509 14.5325 53.7427 14.4209 53.7058 14.3173L53.4644 13.6411L55.0263 13.5731C55.1139 13.5693 55.1996 13.5466 55.2775 13.5065C55.3555 13.4665 55.4238 13.41 55.4779 13.341C55.532 13.272 55.5705 13.1922 55.5908 13.1069C55.6112 13.0217 55.6128 12.9331 55.5956 12.8471L55.5906 12.8211L57.9252 11.8701C57.936 11.8657 57.9466 11.861 57.9571 11.856L59.9247 10.9188L61.3591 11.3406L61.6718 11.5753L60.6937 13.2868C60.64 13.3808 60.6124 13.4874 60.6137 13.5956C60.615 13.7038 60.6452 13.8096 60.7011 13.9023C60.757 13.9949 60.8366 14.0709 60.9318 14.1225C61.0269 14.1741 61.1341 14.1993 61.2422 14.1956L64.249 14.0917C64.3242 14.0891 64.3982 14.0724 64.4673 14.0427L65.9189 13.4207C66.0043 13.384 66.0801 13.3282 66.1405 13.2576C66.201 13.1871 66.2444 13.1036 66.2675 13.0136L67.3996 13.2963L68.6184 14.8903C68.7106 15.0109 68.8445 15.0925 68.9939 15.1193C69.1433 15.146 69.2973 15.1159 69.4256 15.0349L71.3955 13.7906C71.5103 13.7181 71.5975 13.6091 71.6432 13.4812C71.6889 13.3533 71.6903 13.2137 71.6474 13.0848L71.2923 12.0191L72.5371 11.3641L74.2326 12.1672C74.3362 12.2162 74.4516 12.2349 74.5654 12.2211C74.6792 12.2073 74.7868 12.1616 74.8758 12.0892L76.3449 10.8958L77.3453 10.9787C77.4868 10.9905 77.6279 10.9525 77.7443 10.871L79.8177 9.41943C79.8996 9.36211 79.9661 9.28546 80.0113 9.19629C80.0565 9.10712 80.079 9.00821 80.0768 8.90826C80.0746 8.80832 80.0478 8.71045 79.9987 8.62335C79.9497 8.53625 79.8799 8.4626 79.7955 8.40894L79.2185 8.04163L79.4306 7.76904L81.9686 6.79303C81.9713 6.79305 81.974 6.79305 81.9766 6.79303L83.2007 6.30322L83.1993 6.30243ZM17.3892 46.4763L17.4459 48.7455C17.4494 48.8852 17.501 49.0194 17.5919 49.1255L18.8483 50.5913L19.3241 51.7475C19.3662 51.8495 19.4353 51.9382 19.5239 52.004C19.6125 52.0697 19.7174 52.1101 19.8273 52.1207L18.7658 52.8283L17.8043 52.5224L17.7102 51.7223L17.7796 50.753C17.7885 50.6258 17.7571 50.499 17.69 50.3906C17.6229 50.2822 17.5233 50.1977 17.4055 50.149C17.4112 50.1163 17.4142 50.0832 17.4145 50.05V49.5368C17.4145 49.4925 17.4096 49.4483 17.4 49.4051L17.1315 48.1955L17.3893 46.4763L17.3892 46.4763ZM59.2974 80.1405L60.4936 80.824L61.6707 82.4539L61.8606 84.1614C61.8672 84.2207 61.8825 84.2787 61.906 84.3336L61.9873 84.5232L60.285 83.4896L59.3146 80.1903C59.3096 80.1734 59.3039 80.1567 59.2974 80.1403L59.2974 80.1405Z" fill="black"/>
<path fill-rule="evenodd" clip-rule="evenodd" d="M76.3581 78.3026C76.2698 78.3026 76.1825 78.3219 76.1024 78.359C76.0223 78.3962 75.9512 78.4503 75.8941 78.5177L74.7537 79.8654C74.6936 79.9363 74.6506 80.0202 74.628 80.1105L74.5152 80.562L73.2392 80.8013C73.1283 80.8221 73.0253 80.8733 72.9419 80.9493C72.8585 81.0254 72.7979 81.123 72.7669 81.2316L72.34 82.7257L70.7415 83.2009C70.6365 83.2322 70.5418 83.2912 70.4676 83.3719C70.3934 83.4527 70.3423 83.552 70.32 83.6593L70.1933 84.267L69.6074 84.1028L69.2665 83.8901C69.1345 83.8077 68.9759 83.7789 68.8234 83.8099C68.6709 83.841 68.5361 83.9293 68.4468 84.0568L67.7211 85.0938C67.6587 85.1829 67.6214 85.2872 67.6131 85.3958L67.5612 86.0695C67.5548 86.1529 67.5658 86.2369 67.5933 86.3159C67.6208 86.395 67.6644 86.4674 67.7213 86.5288C67.7782 86.5902 67.8471 86.6393 67.9238 86.6729C68.0005 86.7064 68.0833 86.7236 68.167 86.7236H67.8876C67.9224 86.8698 68.0101 86.998 68.1338 87.0833L68.7215 87.4875L68.8052 88.6984C68.8112 88.7842 68.8353 88.8677 68.876 88.9435C68.9167 89.0193 68.973 89.0855 69.0412 89.1379C69.1094 89.1903 69.1879 89.2277 69.2716 89.2474C69.3553 89.2672 69.4423 89.269 69.5267 89.2527L70.7161 89.0225L70.8084 89.1763C70.8844 89.3029 71.0039 89.3976 71.1446 89.4425C71.2853 89.4874 71.4376 89.4796 71.5729 89.4204L72.3268 89.0906L72.4686 89.0706L72.4636 89.0555C72.4907 89.137 72.5348 89.2117 72.5929 89.2749C72.651 89.3381 72.7219 89.3882 72.8008 89.422C72.8797 89.4558 72.9648 89.4726 73.0507 89.4711C73.1365 89.4696 73.221 89.4499 73.2987 89.4133L73.469 89.3334L73.4797 89.3903C73.4985 89.4901 73.5419 89.5837 73.6062 89.6624C73.6704 89.741 73.7533 89.8023 73.8474 89.8407C73.9414 89.8791 74.0436 89.8931 74.1445 89.8818C74.2455 89.8705 74.3419 89.8341 74.4252 89.7759L75.9806 88.6874C76.0595 88.6321 76.124 88.559 76.169 88.4739L76.6357 87.5924C76.692 87.4859 76.7154 87.365 76.7029 87.2451C76.6904 87.1253 76.6425 87.0119 76.5654 86.9193L76.65 87.021L77.0538 86.5906L77.5133 86.1307C77.5763 86.0678 77.6247 85.9917 77.655 85.908C77.6854 85.8242 77.6969 85.7349 77.6889 85.6462L77.6607 85.3365L78.2262 84.6954L78.8539 84.2128C78.937 84.1488 79.0022 84.0643 79.043 83.9678C79.0838 83.8712 79.099 83.7658 79.087 83.6616C79.075 83.5575 79.0362 83.4582 78.9745 83.3734C78.9128 83.2887 78.8301 83.2212 78.7347 83.1779L78.2986 82.9799C78.3262 82.8538 78.313 82.7222 78.2609 82.6041C78.2088 82.4861 78.1205 82.3877 78.0087 82.3232L77.7702 82.1859C77.8435 82.0919 77.8876 81.9784 77.8969 81.8595L77.9117 81.6664L78.1093 81.6354C78.1951 81.6221 78.2771 81.5907 78.3498 81.5431C78.4224 81.4955 78.484 81.4328 78.5304 81.3594C78.5768 81.2859 78.6069 81.2034 78.6187 81.1173C78.6305 81.0313 78.6237 80.9437 78.5988 80.8605L78.5742 80.7786L79.0726 80.4562C79.1826 80.3849 79.2666 80.2799 79.312 80.157C79.3575 80.034 79.362 79.8998 79.3249 79.774C79.2877 79.6483 79.211 79.538 79.106 79.4595C79.001 79.381 78.8734 79.3386 78.7424 79.3385H78.4282L78.3736 79.202C78.3337 79.1026 78.2683 79.0154 78.1839 78.9493C78.0995 78.8833 77.9991 78.8409 77.893 78.8262L77.895 78.8422C77.8941 78.8368 77.8931 78.8315 77.892 78.8262C77.8868 78.8261 77.8815 78.8261 77.8763 78.8262H77.892C77.8718 78.6811 77.7998 78.5481 77.6894 78.4518C77.5789 78.3555 77.4374 78.3024 77.2909 78.3022H76.3579L76.3581 78.3026ZM76.7391 79.4436C76.7543 79.5807 76.8157 79.7087 76.9132 79.8063C77.0108 79.9039 77.1386 79.9653 77.2757 79.9806L77.3805 79.9927L77.4229 80.0983C77.3669 80.1568 77.3232 80.2258 77.2943 80.3014C77.2654 80.377 77.252 80.4577 77.2547 80.5386H77.2507C77.1151 80.5594 76.9905 80.6255 76.8973 80.7261C76.804 80.8267 76.7476 80.956 76.7371 81.0928L76.7208 81.3083L76.1441 81.4249C76.0231 81.4494 75.9124 81.5102 75.8268 81.5991C75.7412 81.6881 75.6847 81.801 75.6649 81.9229C75.6451 82.0447 75.6628 82.1696 75.7158 82.2811C75.7687 82.3926 75.8544 82.4854 75.9613 82.547L76.7704 83.0125C76.7203 83.1555 76.7255 83.3121 76.7849 83.4515C76.8444 83.591 76.9538 83.7031 77.0917 83.766L77.3305 83.8746L76.5766 84.729C76.5219 84.791 76.4805 84.8635 76.4548 84.942C76.4291 85.0206 76.4197 85.1036 76.4271 85.1859L76.4532 85.4728L76.1877 85.7383C76.1831 85.7429 76.1786 85.7476 76.1741 85.7523L75.3965 86.5818C75.2955 86.6896 75.2371 86.8306 75.2325 86.9783C75.2279 87.126 75.2772 87.2703 75.3713 87.3843L75.1639 87.7759L74.4932 88.2456C74.4647 88.1658 74.4199 88.0929 74.3617 88.0315C74.3034 87.97 74.2329 87.9214 74.1547 87.8888C74.0766 87.8562 73.9925 87.8402 73.9078 87.842C73.8231 87.8439 73.7398 87.8634 73.6631 87.8993L73.3726 88.0358C73.3075 87.9477 73.2198 87.879 73.1188 87.8367C73.0178 87.7944 72.9073 87.7802 72.7989 87.7955L72.0732 87.8993C72.0189 87.9071 71.9659 87.9223 71.9157 87.9443L71.5757 88.093L71.5395 88.033C71.4754 87.9261 71.3799 87.8416 71.2661 87.7908C71.1522 87.74 71.0255 87.7255 70.9031 87.7491L69.9701 87.9298L69.9137 87.1116C69.9074 87.0203 69.8806 86.9317 69.8352 86.8522C69.7899 86.7727 69.7272 86.7044 69.6517 86.6526L69.0513 86.24L69.0302 86.0492C69.0126 85.8935 68.9355 85.7507 68.8151 85.6505L69.1118 85.2266L69.0376 85.1805C69.0867 85.2113 69.1399 85.2348 69.1957 85.2505L70.4916 85.6136C70.5718 85.6361 70.6557 85.6418 70.7382 85.6305C70.8207 85.6192 70.9 85.591 70.9712 85.5477C71.0423 85.5045 71.1039 85.4471 71.1519 85.379C71.1999 85.311 71.2335 85.2339 71.2505 85.1523L71.4356 84.2632L73.0059 83.7965C73.1038 83.7674 73.1928 83.7141 73.2647 83.6415C73.3366 83.5688 73.389 83.4791 73.417 83.3809L73.8324 81.9274L75.1223 81.6857C75.2366 81.6642 75.3423 81.6105 75.4269 81.5308C75.5115 81.451 75.5715 81.3487 75.5997 81.236L75.7726 80.5435L76.6398 79.5188H76.7475L76.7395 79.4448L76.7391 79.4436Z" fill="black"/>
<path fill-rule="evenodd" clip-rule="evenodd" d="M53.0139 82.0166C52.9279 82.0191 52.8434 82.04 52.766 82.0776C52.6886 82.1153 52.6201 82.1689 52.565 82.235L52.382 82.4548C52.3186 82.5309 52.2748 82.6213 52.2543 82.7181C52.2339 82.815 52.2374 82.9153 52.2645 83.0105L52.5576 84.0369C52.5976 84.1769 52.6866 84.2979 52.8083 84.3778L54.0081 85.1664L55.0099 86.4445C55.0689 86.5196 55.1447 86.5798 55.2312 86.6201L56.1115 87.031L56.5725 88.199C56.6126 88.3005 56.6793 88.3894 56.7656 88.4562L57.8336 89.283L59.2488 91.2293C59.2898 91.2856 59.3401 91.3344 59.3977 91.3737L62.5139 93.4996C62.6369 93.5836 62.7864 93.6194 62.934 93.6005L64.0703 93.4539C64.1952 93.4377 64.3121 93.3832 64.4047 93.2977C64.4973 93.2123 64.561 93.1002 64.5871 92.9769L64.9903 91.0707C65.0172 90.9432 65.0025 90.8104 64.9482 90.6919L64.545 89.812C64.509 89.7335 64.4567 89.6636 64.3916 89.6069C64.3265 89.5503 64.25 89.5081 64.1673 89.4833L63.3642 89.2424L63.21 88.8015C63.1775 88.7088 63.1231 88.6253 63.0513 88.5582C62.9795 88.4912 62.8926 88.4425 62.7979 88.4164L62.5 88.3345L62.5727 88.2117C62.6157 88.1389 62.643 88.058 62.6529 87.9741C62.6628 87.8902 62.6551 87.8051 62.6304 87.7244C62.6056 87.6436 62.5642 87.5689 62.5089 87.505C62.4536 87.4411 62.3857 87.3895 62.3093 87.3534L61.0452 86.7565L59.4817 85.5837C59.41 85.5302 59.3275 85.493 59.2398 85.4751C59.1522 85.4572 59.0616 85.4588 58.9747 85.4799L57.9286 84.6124C57.8847 84.5761 57.8359 84.5462 57.7836 84.5234L56.7188 84.0591V83.9801C56.7188 83.8895 56.6985 83.8 56.6595 83.7183C56.6204 83.6365 56.5635 83.5645 56.493 83.5076L55.5401 82.7377C55.4648 82.6769 55.3762 82.6349 55.2814 82.6154L53.5091 82.2487C53.4504 82.174 53.3751 82.1141 53.2891 82.0739C53.2031 82.0336 53.1089 82.014 53.014 82.0167L53.0139 82.0166ZM53.7425 83.5376L54.891 83.7753L55.5036 84.2704V84.4567C55.5036 84.5749 55.5382 84.6906 55.603 84.7896C55.6678 84.8885 55.7601 84.9664 55.8685 85.0137L57.2192 85.6025L58.656 86.7939C58.7335 86.8581 58.8257 86.902 58.9243 86.9218C59.023 86.9415 59.125 86.9364 59.2212 86.907L60.3654 87.7653C60.3982 87.7897 60.4334 87.8108 60.4705 87.8283L61.1875 88.1668L61.0502 88.3993C61.0027 88.4797 60.9744 88.5699 60.9674 88.663C60.9604 88.756 60.975 88.8495 61.01 88.936C61.045 89.0226 61.0994 89.0999 61.1691 89.162C61.2388 89.2241 61.3218 89.2693 61.4118 89.2941L62.168 89.5026L62.3193 89.9356C62.351 90.0261 62.4037 90.1078 62.4731 90.1741C62.5424 90.2403 62.6265 90.2892 62.7183 90.3168L63.5547 90.5678L63.76 91.0151L63.4873 92.3032L63.0079 92.3652L60.1696 90.4285L58.7655 88.4978C58.7317 88.4513 58.6914 88.4099 58.6459 88.3748L57.6417 87.5968L57.1531 86.3591C57.096 86.2146 56.9857 86.0973 56.8448 86.0316L55.8768 85.5801L54.9031 84.3379C54.8625 84.2861 54.8137 84.2413 54.7586 84.2051L53.7425 83.5371V83.5376Z" fill="black"/>
<path fill-rule="evenodd" clip-rule="evenodd" d="M82.0646 91.7305C81.7251 91.7305 81.2367 91.7945 80.5931 91.8851C79.9496 91.9751 79.188 92.0954 78.4568 92.215C77.0384 92.4469 75.8146 92.665 75.7375 92.6787C75.6625 92.6687 74.8419 92.5907 73.9106 92.5028C73.4242 92.4568 72.9286 92.4109 72.5343 92.3765C72.1401 92.3415 71.9273 92.3174 71.7274 92.3174C71.4795 92.3174 70.9385 92.3554 70.3686 92.3914C69.7988 92.4284 69.2662 92.4655 69.2662 92.4655C69.2467 92.4678 69.2273 92.4712 69.2081 92.4755L67.5458 92.7522L66.2503 92.5479C66.1487 92.5318 66.0447 92.5417 65.948 92.5768L64.335 93.1633C64.2137 93.2074 64.1096 93.2889 64.0378 93.3961C63.966 93.5033 63.9302 93.6305 63.9355 93.7594C63.9408 93.8883 63.987 94.0123 64.0674 94.1132C64.1479 94.214 64.2583 94.2866 64.3828 94.3206L66.8021 94.9805C66.8542 94.9945 66.908 95.0016 66.962 95.0015H73.5603C73.5966 95.0014 73.6329 94.998 73.6686 94.9915L80.56 93.7451C80.5851 93.7407 80.6098 93.7347 80.6342 93.7272C80.6342 93.7272 81.2832 93.5237 81.8345 93.3109C82.1102 93.2045 82.3294 93.1307 82.5667 92.9623C82.626 92.9203 82.6957 92.8814 82.7862 92.736C82.8315 92.663 82.8862 92.5481 82.8847 92.3882C82.8827 92.2284 82.8002 92.0522 82.7085 91.9561C82.525 91.7639 82.3994 91.7675 82.3092 91.7516C82.219 91.7356 82.1457 91.7336 82.0647 91.7336L82.0646 91.7305ZM71.7274 93.5322C71.6742 93.5322 72.0388 93.5532 72.4281 93.5872C72.8174 93.6212 73.3114 93.6673 73.7964 93.7128C73.8295 93.7128 73.8284 93.7128 73.8614 93.7228L73.5057 93.7867H68.731L69.3781 93.6791C69.4043 93.6791 69.8947 93.6431 70.4467 93.6071C71.0132 93.5711 71.6821 93.535 71.7274 93.535L71.7274 93.5322Z" fill="black"/>
<path fill-rule="evenodd" clip-rule="evenodd" d="M79.0303 65.7187C78.8729 65.7241 78.7238 65.7905 78.6143 65.9038C78.5049 66.0171 78.4438 66.1684 78.4437 66.3259V66.5932L78.2604 68.7352L77.9794 68.8282C77.8486 68.8718 77.7366 68.9586 77.6616 69.0744C77.5867 69.1901 77.5534 69.3279 77.5671 69.4651L77.7139 70.9313C77.7233 71.025 77.7543 71.1152 77.8045 71.1948C77.8547 71.2744 77.9227 71.3413 78.0032 71.3902L80.0559 72.6364C80.1722 72.707 80.3088 72.7365 80.4439 72.7202C80.5789 72.7039 80.7046 72.6427 80.8008 72.5465L81.6804 71.6666C81.7419 71.605 81.7895 71.531 81.8199 71.4494C81.8504 71.3679 81.8629 71.2808 81.8568 71.194C81.8506 71.1072 81.8259 71.0227 81.7842 70.9463C81.7426 70.8699 81.685 70.8033 81.6154 70.7511L80.624 70.0073C80.7152 69.8802 80.7295 69.8665 80.8364 69.7098C80.9787 69.5011 81.1221 69.282 81.2387 69.0799C81.297 68.9789 81.3487 68.8833 81.3929 68.783C81.4372 68.6826 81.492 68.6042 81.492 68.3777C81.492 68.1272 81.4441 68.0149 81.3923 67.8152C81.3405 67.6155 81.2746 67.3899 81.209 67.1744C81.0778 66.7435 80.9476 66.3526 80.9476 66.3526C80.9126 66.2478 80.8498 66.1546 80.7658 66.0829C80.6818 66.0111 80.5798 65.9637 80.4709 65.9456L79.1513 65.7258C79.1114 65.7184 79.0708 65.7151 79.0302 65.7158L79.0303 65.7187ZM79.6254 67.0374L79.9048 67.0834C79.9533 67.2328 79.9757 67.2968 80.0464 67.5287C80.1091 67.7348 80.1716 67.9491 80.2161 68.1206C80.2514 68.2567 80.2587 68.3218 80.2645 68.325C80.2463 68.363 80.2233 68.41 80.1865 68.4733C80.0969 68.6287 79.9652 68.8312 79.8325 69.0257C79.5673 69.4148 79.2985 69.7731 79.2985 69.7731C79.2506 69.837 79.2158 69.9096 79.196 69.9869C79.1762 70.0642 79.1718 70.1447 79.1831 70.2237C79.1944 70.3027 79.2211 70.3787 79.2618 70.4474C79.3025 70.516 79.3563 70.576 79.4202 70.6239L80.3259 71.3033L80.2787 71.3503L78.893 70.5086L78.8248 69.8271L79.0238 69.7611C79.1364 69.7236 79.2355 69.6539 79.309 69.5607C79.3824 69.4675 79.4269 69.3548 79.4371 69.2366L79.6255 67.0371L79.6254 67.0374Z" fill="black"/>
<path fill-rule="evenodd" clip-rule="evenodd" d="M83.7301 23.4506C83.6282 23.4544 83.5288 23.4839 83.4412 23.5363C83.3536 23.5886 83.2806 23.6622 83.2289 23.7502C83.1772 23.8382 83.1486 23.9378 83.1455 24.0398C83.1425 24.1418 83.1652 24.2429 83.2115 24.3338L84.4703 26.8012C84.4726 26.8056 84.4749 26.8099 84.4773 26.8142L86.0957 29.8106C86.1024 29.8229 86.1095 29.8349 86.1171 29.8466L87.7354 32.4024C87.8012 32.5062 87.8969 32.5876 88.0099 32.6359C88.1229 32.6841 88.2478 32.697 88.3683 32.6728C88.4887 32.6486 88.599 32.5885 88.6846 32.5003C88.7702 32.4122 88.827 32.3001 88.8477 32.179L88.9379 31.6503C88.9524 31.5648 88.9484 31.477 88.9262 31.3931L88.3038 29.0402L88.0386 27.481C88.0167 27.3522 87.9539 27.2339 87.8594 27.1436L84.173 23.6185C84.1142 23.5624 84.0447 23.5185 83.9687 23.4897C83.8927 23.4608 83.8116 23.4476 83.7303 23.4506H83.7301ZM85.9668 27.0151L86.8743 27.8829L87.0757 29.0681L85.9668 27.0151V27.0151Z" fill="black"/>
<path fill-rule="evenodd" clip-rule="evenodd" d="M87.4605 33.3867C87.3662 33.3902 87.2739 33.4156 87.1911 33.4609C87.1083 33.5062 87.0372 33.5702 86.9834 33.6477C86.9297 33.7253 86.8947 33.8144 86.8813 33.9078C86.8679 34.0012 86.8765 34.0965 86.9063 34.1861L87.2582 35.2409L87.6171 37.323C87.6194 37.3354 87.6221 37.3478 87.6251 37.3601L88.3416 40.3701V42.3031L87.9022 43.3579C87.8217 43.3606 87.7426 43.3793 87.6694 43.4129C87.5962 43.4465 87.5304 43.4943 87.4758 43.5536C87.4213 43.6129 87.3791 43.6824 87.3516 43.7581C87.3242 43.8339 87.3121 43.9143 87.316 43.9948L87.3688 45.0462L85.6214 45.8294C85.5208 45.8746 85.4343 45.9463 85.3713 46.0368L84.1983 47.723C84.1792 47.7506 84.1625 47.7797 84.1482 47.81L83.4881 49.203C83.4438 49.2965 83.4242 49.3998 83.4311 49.5031C83.4379 49.6063 83.471 49.7062 83.5273 49.7931L84.3197 51.018L84.8941 52.0952C84.9453 52.1914 85.0215 52.2719 85.1147 52.3285C85.2078 52.3851 85.3144 52.4156 85.4233 52.4168C85.5323 52.4181 85.6395 52.3899 85.7339 52.3355C85.8283 52.281 85.9063 52.2022 85.9597 52.1073L86.6195 50.9342C86.6766 50.8327 86.7034 50.717 86.6966 50.6007L86.6322 49.5042C86.6556 49.4937 86.6782 49.4816 86.7001 49.4682L88.0197 48.6616C88.1263 48.5965 88.2102 48.5 88.26 48.3855L88.8741 46.9738L89.1699 46.8999C89.2863 46.8708 89.3915 46.808 89.4722 46.7193L90.2053 45.9129C90.207 45.9095 90.2086 45.9062 90.2103 45.9029L91.383 44.583C91.4487 44.5091 91.4954 44.4203 91.5191 44.3243C91.5427 44.2283 91.5425 44.128 91.5186 44.0321L90.9594 41.796L91.092 40.7357C91.103 40.6485 91.0949 40.56 91.0683 40.4762L90.555 38.8631C90.5223 38.7603 90.4627 38.668 90.3824 38.5958L89.7611 38.0365L89.5099 37.3546L90.3325 37.0514C90.4309 37.0151 90.5182 36.9541 90.586 36.8741C90.6538 36.7942 90.6998 36.698 90.7194 36.5951L91.0128 35.0553C91.0331 34.9488 91.0244 34.8389 90.9879 34.7369C90.9513 34.6349 90.8881 34.5444 90.8048 34.4751L90.3649 34.1084C90.2807 34.0383 90.1792 33.9924 90.071 33.9753C89.9629 33.9582 89.8521 33.9707 89.7505 34.0114L89.2705 34.2033L87.7551 33.4456C87.664 33.3999 87.5629 33.3779 87.461 33.3816L87.4605 33.3867ZM88.4793 35.1715L88.9706 35.4173C89.0474 35.4555 89.1314 35.4771 89.2172 35.4806C89.3029 35.484 89.3884 35.4693 89.4681 35.4373L89.7229 35.3352L89.5894 36.0348L88.6857 36.3679L88.4793 35.1712V35.1715ZM89.3343 39.2929L89.4464 39.3941L89.8692 40.7227L89.7392 41.7633C89.7299 41.8377 89.7345 41.9132 89.7526 41.9859L90.2614 44.0208L89.3038 45.0982L88.6965 45.7661L88.4568 45.8261C88.558 45.7082 88.6102 45.5561 88.6027 45.401L88.5668 44.6801C88.66 44.6143 88.7328 44.5236 88.7769 44.4184L89.51 42.6588C89.5407 42.5848 89.5566 42.5055 89.5566 42.4254V40.299C89.5566 40.2517 89.5512 40.2045 89.5403 40.1585L89.3344 39.2931L89.3343 39.2929ZM87.926 46.1283C87.9079 46.1559 87.8921 46.185 87.8788 46.2152L87.2219 47.7257L86.7375 48.0214C86.7078 47.9344 86.6588 47.8553 86.5941 47.79C86.5294 47.7247 86.4507 47.6749 86.364 47.6444C86.2773 47.6139 86.1848 47.6034 86.0935 47.6139C86.0022 47.6243 85.9144 47.6553 85.8368 47.7046L85.5763 47.8704L86.2723 46.8698L87.926 46.1284L87.926 46.1283ZM84.8792 49.1051C84.894 49.1243 84.9099 49.1427 84.927 49.1601L85.4236 49.6563L85.4729 50.4942L85.4444 50.5451L85.3797 50.424C85.3716 50.409 85.3629 50.3943 85.3536 50.38L84.7312 49.4179L84.8792 49.1056L84.8792 49.1051Z" fill="black"/>
</svg>
