<svg width="84" height="92" viewBox="0 0 84 92" fill="none" xmlns="http://www.w3.org/2000/svg">
<path fill-rule="evenodd" clip-rule="evenodd" d="M75.2928 0.998535C75.2195 0.999846 75.1471 1.01438 75.0789 1.0415L73.5276 1.66223L70.8356 2.69751C70.7324 2.73719 70.6419 2.80429 70.574 2.8916L69.8483 3.82495C69.7964 3.89174 69.759 3.96863 69.7385 4.05072C69.718 4.13281 69.7148 4.21827 69.7293 4.30164C69.7437 4.385 69.7754 4.46444 69.8223 4.53485C69.8692 4.60526 69.9303 4.66508 70.0017 4.71051L70.3743 4.94751L69.2265 5.75153L68.2009 5.66553C68.0446 5.6525 67.8893 5.70044 67.7675 5.79932L66.4057 6.90594L64.7818 6.13672C64.6966 6.09632 64.6032 6.07628 64.509 6.07819C64.4148 6.0801 64.3223 6.10389 64.2389 6.14771L62.2686 7.18463C62.1412 7.25175 62.0417 7.36199 61.9879 7.49567C61.9342 7.62934 61.9297 7.77775 61.9752 7.91443L62.3431 9.01801L61.2454 9.71143L60.235 8.39001C60.1513 8.28062 60.033 8.20292 59.8994 8.16956L57.826 7.65131C57.7364 7.62891 57.6429 7.62727 57.5526 7.64642C57.4622 7.66558 57.3774 7.70507 57.3047 7.7619C57.2319 7.81873 57.173 7.89137 57.1325 7.97437C57.092 8.05736 57.071 8.1485 57.071 8.24084V8.4621L56.0922 8.88165L54.2885 8.9436L54.9919 7.7124C55.0653 7.58384 55.0893 7.43295 55.0593 7.28796C55.0293 7.14298 54.9474 7.01392 54.829 6.92505L53.9995 6.30292C53.9414 6.2593 53.876 6.22647 53.8064 6.20593L52.0438 5.68762C51.9003 5.64526 51.7462 5.65737 51.611 5.72162L49.4495 6.75085L46.6664 7.88464C46.5639 7.9265 46.4748 7.99556 46.4087 8.08435C46.3427 8.17314 46.3021 8.27826 46.2914 8.38843L44.5882 8.4624C44.4931 8.46653 44.4004 8.49296 44.3174 8.53949C44.2344 8.58602 44.1635 8.65135 44.1104 8.73029C44.0573 8.80922 44.0235 8.89955 44.0116 8.99396C43.9998 9.08836 44.0103 9.1842 44.0423 9.2738L44.1788 9.65625L43.6967 9.5354L42.9823 9.14594L43.041 8.6178C43.0535 8.50435 43.0339 8.38971 42.9843 8.28693C42.9346 8.18414 42.8571 8.09737 42.7604 8.03662C42.6638 7.97587 42.552 7.94358 42.4379 7.94342C42.3238 7.94326 42.2119 7.97523 42.1151 8.03571L38.7971 10.1093C38.7753 10.1229 38.7544 10.1379 38.7345 10.1542L36.5347 11.9539L33.7308 12.9554C33.651 12.9839 33.5781 13.0287 33.5166 13.0871L31.4429 15.057C31.4235 15.0755 31.4054 15.0952 31.3886 15.116L28.9612 18.126L27.8748 18.21C27.7222 18.2218 27.5796 18.2907 27.4756 18.403C27.3716 18.5153 27.3138 18.6628 27.3138 18.8159V20.0031L26.1221 19.8708C26.0372 19.8614 25.9512 19.87 25.8699 19.8961C25.7885 19.9221 25.7136 19.965 25.6499 20.022C25.5862 20.0789 25.5353 20.1487 25.5004 20.2267C25.4655 20.3047 25.4475 20.3891 25.4474 20.4745V21.8226C25.4475 21.9199 25.4708 22.0157 25.5156 22.1021C25.5604 22.1885 25.6252 22.2628 25.7047 22.3189L26.6653 22.9971L26.1817 23.2576C26.0722 23.3166 25.9835 23.4078 25.9275 23.5188C25.8714 23.6298 25.8508 23.7554 25.8684 23.8785L26.0405 25.0824L25.8649 25.0244L25.5516 24.7111C25.5054 24.665 25.4521 24.6267 25.3937 24.5975L25.0668 24.434L24.5856 23.3844C24.5449 23.2955 24.4833 23.2177 24.4061 23.1577C24.3289 23.0977 24.2383 23.0571 24.1421 23.0396L23.0652 22.8438L21.6219 22.2466C21.4989 22.1958 21.3627 22.1866 21.2341 22.2206C21.1054 22.2547 20.9915 22.33 20.9098 22.435L20.1842 23.3681C20.1322 23.4349 20.0947 23.5117 20.0741 23.5938L19.7929 24.7188L18.9334 25.8648C18.8779 25.9388 18.8399 26.0246 18.8226 26.1155C18.8052 26.2065 18.8088 26.3001 18.8332 26.3894L18.9886 26.9597C19.012 27.0452 19.0538 27.1245 19.1111 27.1922L19.3897 27.5215L19.1565 27.8798L18.0096 27.8008C17.9145 27.7943 17.8192 27.8102 17.7313 27.8473C17.6435 27.8844 17.5657 27.9416 17.5041 28.0144L16.9339 28.6885C16.8917 28.7384 16.8578 28.7946 16.8336 28.8552L16.4185 29.8922C16.3828 29.9816 16.3688 30.0783 16.3778 30.1743C16.3867 30.2702 16.4184 30.3626 16.4701 30.4439L16.976 31.2387L16.6959 31.6309C16.6134 31.7466 16.574 31.8877 16.5847 32.0294C16.5953 32.1712 16.6554 32.3047 16.7543 32.4067C16.689 32.4331 16.6288 32.4706 16.5763 32.5176L16.0577 32.984C15.9818 33.0523 15.9244 33.1387 15.8907 33.2351C15.857 33.3315 15.8481 33.4348 15.8649 33.5355L15.9936 34.3065L15.2692 36.2127L14.6933 36.0355L13.8303 34.5446L14.2747 33.5812L14.7168 33.1394L14.8743 32.9819L15.1769 32.9519C15.2779 32.9418 15.3747 32.9066 15.4585 32.8494C15.5424 32.7923 15.6106 32.7151 15.6569 32.6248C15.7033 32.5346 15.7263 32.4341 15.7238 32.3327C15.7214 32.2313 15.6936 32.1321 15.643 32.0441L14.8209 30.6162L14.7785 30.7012C14.8149 30.6285 14.8364 30.5492 14.8416 30.468C14.8468 30.3868 14.8356 30.3054 14.8088 30.2286L14.1033 28.2127L13.9559 27.1328C13.9436 27.0431 13.9115 26.9572 13.8619 26.8815L12.8727 25.3745V24.6749C12.8724 24.6545 12.8711 24.6342 12.8687 24.614C12.8618 24.5534 12.8458 24.4943 12.8212 24.4385C12.805 24.4014 12.785 24.3661 12.7616 24.3329C12.75 24.3163 12.7375 24.3003 12.7242 24.2849C12.671 24.2234 12.6059 24.1733 12.5329 24.1375C12.4965 24.1197 12.4584 24.1056 12.4193 24.0954C12.3997 24.0901 12.3799 24.0857 12.36 24.0824C12.34 24.078 12.3198 24.0748 12.2995 24.0724C12.2589 24.0717 12.2183 24.075 12.1784 24.0824C12.0979 24.0939 12.0205 24.1215 11.9509 24.1635C11.9336 24.1739 11.9169 24.1853 11.9008 24.1974C11.8682 24.2217 11.8382 24.2492 11.8112 24.2794C11.7977 24.2944 11.7851 24.3101 11.7732 24.3264C11.7494 24.3593 11.7289 24.3945 11.7121 24.4315C11.6869 24.4868 11.6703 24.5456 11.6626 24.606C11.6599 24.6262 11.6582 24.6465 11.6576 24.6669C11.6575 24.6703 11.6574 24.6736 11.6573 24.6769V25.558V26.5094L11.5442 27.5291L11.5139 27.5432H10.9974L10.3824 26.544L10.2285 26.082V25.0401C10.2285 24.9446 10.206 24.8505 10.1629 24.7654C10.1197 24.6802 10.0571 24.6065 9.98015 24.55L9.20287 23.9798C9.13307 23.9287 9.05316 23.8931 8.9685 23.8754L8.24284 23.7227L7.91264 23.1723C7.83217 23.0386 7.70333 22.941 7.55282 22.8997C7.40231 22.8583 7.24167 22.8765 7.10421 22.9504L7.00216 22.7466C6.94071 22.6237 6.8394 22.5252 6.71477 22.4673C6.59014 22.4093 6.44955 22.3953 6.31595 22.4276L5.65794 22.5866C5.53108 22.6173 5.41748 22.6881 5.33397 22.7885L3.50083 24.9876C3.40173 25.1065 3.35175 25.2588 3.3611 25.4133L3.50795 27.833C3.51733 27.9875 3.5853 28.1326 3.69799 28.2386C3.81068 28.3447 3.95959 28.4038 4.11435 28.4038H4.45404L4.53744 29.1134C4.54877 29.2098 4.58304 29.3022 4.63739 29.3827C4.69175 29.4632 4.76459 29.5294 4.84983 29.5759L5.55472 29.9604L5.73747 30.1801L5.43932 30.3405C5.30309 30.4138 5.19995 30.5364 5.15095 30.6831L4.84242 31.609L2.64081 33.3291C2.52846 33.4169 2.45054 33.5413 2.42068 33.6807L2.01305 35.5827L1.2337 36.4917C1.16539 36.5714 1.11889 36.6674 1.09872 36.7704C1.07854 36.8734 1.08539 36.9798 1.11859 37.0794L1.29066 37.595L0.65608 41.3311C0.642633 41.4111 0.645353 41.4929 0.664079 41.5719L0.922479 42.6707L0.227979 45.3105C0.209559 45.3807 0.203836 45.4535 0.211079 45.5256L0.430909 47.7248C0.432217 47.7368 0.433884 47.7489 0.435909 47.7608L0.988909 51.2174L0.432939 52.2059C0.381808 52.2969 0.354947 52.3994 0.35494 52.5037V55.4363C0.354926 55.5421 0.382536 55.6461 0.435037 55.7379C0.487538 55.8298 0.563111 55.9063 0.654279 55.96L1.9006 56.693C1.96797 56.7329 2.04242 56.7594 2.11984 56.771L4.09923 57.0644C4.12429 57.0693 4.14964 57.0727 4.17513 57.0744L7.5477 57.1474C7.58194 57.1469 7.61607 57.1436 7.64975 57.1374L11.6088 56.5508C11.7429 56.531 11.8664 56.4668 11.9598 56.3687L13.4138 54.842L14.5002 53.828C14.5831 53.7507 14.6427 53.6518 14.6723 53.5425C14.7019 53.4331 14.7004 53.3176 14.6678 53.2091L14.2279 51.7427C14.2073 51.6743 14.1749 51.61 14.1321 51.5528L13.3616 50.5257L13.3135 49.7318L16.509 52.1114C16.5832 52.1666 16.669 52.2042 16.7599 52.2212L19.9213 52.814L20.6914 55.2529C20.7296 55.3739 20.8047 55.4799 20.9062 55.5561L21.4444 55.9596C21.3221 56.042 21.2339 56.1661 21.1964 56.3088C21.1588 56.4514 21.1744 56.6028 21.2403 56.7348L22.1935 58.6409C22.244 58.7418 22.3216 58.8267 22.4175 58.886C22.5135 58.9453 22.6242 58.9768 22.737 58.9767H23.7635C23.7854 58.9779 23.8074 58.9779 23.8294 58.9767L23.6807 59.7202C23.6696 59.7757 23.6662 59.8326 23.6707 59.889L24.0374 64.361C24.041 64.4042 24.0491 64.4469 24.0617 64.4883C24.0617 64.4883 24.4466 65.7528 24.8405 67.0536C25.0374 67.704 25.2367 68.3636 25.3911 68.8782C25.5455 69.3927 25.6697 69.824 25.6664 69.8109C25.7194 70.0227 25.7895 70.1747 25.9047 70.4678C26.0198 70.7609 26.1646 71.1198 26.3072 71.4694C26.5924 72.1685 26.8683 72.8298 26.8683 72.8298C26.9014 72.9093 26.9511 72.9808 27.014 73.0397C27.0769 73.0985 27.1516 73.1432 27.2331 73.171C27.3146 73.1988 27.4011 73.2089 27.4868 73.2007C27.5726 73.1925 27.6556 73.1662 27.7304 73.1235L29.2701 72.2439C29.3044 72.2241 29.3367 72.201 29.3665 72.1749L30.4663 71.222C30.5273 71.1692 30.5771 71.1047 30.6129 71.0323C30.6487 70.96 30.6698 70.8812 30.6748 70.8007L30.7407 69.7426L31.2053 68.7468C31.2507 68.6495 31.2696 68.542 31.2599 68.4351L31.0902 66.569L31.3501 66.522C31.4514 66.5036 31.5463 66.4596 31.626 66.3944L32.3075 65.837L33.0275 65.7171C33.1525 65.6962 33.2678 65.6368 33.3574 65.5471L33.6944 65.2101L35.9924 63.4692L37.8656 62.9142C38.0115 62.8711 38.1359 62.7747 38.2142 62.6442L38.6539 61.9111C38.7277 61.7882 38.7556 61.643 38.7328 61.5014L39.0905 61.3225L41.6686 61.2525C41.8101 61.2487 41.9457 61.1956 42.0522 61.1024L42.3952 60.8022L42.7417 62.5934C42.768 62.7294 42.8401 62.8523 42.9458 62.9417L43.7987 63.6636L44.3627 64.8544L44.5514 66.1749L44.2936 67.0765C44.2493 67.2315 44.2685 67.3977 44.3467 67.5385C44.425 67.6794 44.556 67.7834 44.711 67.8276L45.7375 68.121C45.8181 68.1441 45.9026 68.1502 45.9858 68.139C46.0689 68.1279 46.1488 68.0996 46.2205 68.056L47.4733 67.2932L47.8335 67.7736L47.7222 68.5508C47.7048 68.6731 47.7251 68.7978 47.7803 68.9083L48.3511 70.0502L48.5804 70.6809L48.5289 71.0435C48.5134 71.1517 48.5274 71.2621 48.5695 71.363L48.8151 71.9534L48.6148 72.2738C48.5525 72.3736 48.5204 72.4893 48.5225 72.6069L48.5691 75.1343C48.5708 75.2235 48.592 75.3114 48.6314 75.3915C48.6708 75.4716 48.7273 75.542 48.797 75.5978L50.2029 76.7224L51.1858 80.0641C51.2285 80.2094 51.3239 80.3335 51.4534 80.4121L54.3563 82.1746C54.425 82.2162 54.5012 82.2438 54.5806 82.2559C54.66 82.2679 54.7409 82.2641 54.8188 82.2446L55.2339 82.1411C55.3192 82.1198 55.399 82.0802 55.4675 82.025C55.5361 81.9699 55.5918 81.9005 55.6309 81.8217C55.67 81.7428 55.6915 81.6564 55.694 81.5685C55.6964 81.4805 55.6797 81.3931 55.6451 81.3123L55.0583 79.9434L54.861 78.1666C54.8493 78.0624 54.8109 77.9629 54.7494 77.8779L53.4016 76.0115C53.3509 75.9413 53.2858 75.8828 53.2106 75.8398L52.0191 75.1589L51.904 74.3156C51.8883 74.1997 51.8395 74.0908 51.7634 74.002L51.3401 73.5082L51.7907 71.5253C51.8007 71.4811 51.8058 71.4359 51.8058 71.3906V71.3706C51.8663 71.4813 51.9596 71.5704 52.073 71.6256C52.1864 71.6808 52.3142 71.6995 52.4386 71.6788L53.1927 71.553L53.6894 72.8516C53.7181 72.9268 53.7616 72.9956 53.8172 73.054C53.8728 73.1123 53.9395 73.159 54.0133 73.1913L55.3083 73.7579V74.5011C55.3083 74.5973 55.3312 74.6923 55.3751 74.778C55.4189 74.8636 55.4825 74.9376 55.5606 74.9939C55.6387 75.0502 55.729 75.0871 55.8241 75.1017C55.9193 75.1162 56.0165 75.1079 56.1078 75.0775L57.3524 74.6628C57.4594 74.6271 57.5544 74.5623 57.6266 74.4756C57.6989 74.3889 57.7456 74.2838 57.7615 74.1721L57.8164 73.7894L60.5027 72.6777C60.6138 72.6318 60.7088 72.5538 60.7756 72.4539C60.8424 72.3539 60.8781 72.2363 60.878 72.1161V70.0427C60.8779 70.0129 60.8756 69.9832 60.871 69.9537L60.4563 67.154C60.4411 67.0514 60.3998 66.9545 60.3365 66.8723C60.2732 66.7902 60.19 66.7256 60.0947 66.6847L58.8059 66.1326L57.4973 64.2128L57.7094 63.2228L59.2079 61.9886L59.6031 61.8809L59.7796 62.7048C59.8012 62.8057 59.8481 62.8993 59.9159 62.977C59.9837 63.0547 60.0702 63.1138 60.1672 63.1489C60.2641 63.1839 60.3684 63.1937 60.4703 63.1773C60.5721 63.1609 60.668 63.1189 60.7491 63.0552L62.1467 61.9572L67.5797 59.3942C67.7093 59.3331 67.8131 59.2281 67.8728 59.0979L71.2943 51.6327C71.3571 51.4957 71.3667 51.3403 71.3213 51.1966L70.6995 49.2267C70.6865 49.1855 70.6691 49.1458 70.6476 49.1083L68.9886 46.2051C68.9394 46.119 68.8698 46.0462 68.786 45.9931C68.7022 45.94 68.6066 45.9083 68.5077 45.9007L68.1469 45.8727L69.0684 44.3588L69.9839 43.138C70.0516 43.0477 70.0929 42.9404 70.103 42.8281C70.1131 42.7157 70.0918 42.6027 70.0413 42.5018C69.9909 42.4008 69.9133 42.316 69.8174 42.2567C69.7214 42.1973 69.6108 42.1659 69.498 42.1658H67.839C67.7548 42.1659 67.6715 42.1834 67.5945 42.2173C67.5174 42.2512 67.4482 42.3008 67.3913 42.3629L66.9273 42.869L66.8549 42.6696C66.8123 42.5524 66.7346 42.4511 66.6325 42.3796C66.5303 42.308 66.4086 42.2696 66.2838 42.2697H66.113L66.1109 42.2437L66.1768 42.2326C66.3339 42.2064 66.4745 42.1196 66.5682 41.9908L67.684 40.4561L67.7588 40.9038C67.7753 41.0028 67.8161 41.0961 67.8775 41.1755C67.9388 41.2548 68.0189 41.3178 68.1106 41.3586C68.2022 41.3995 68.3026 41.4171 68.4026 41.4097C68.5027 41.4024 68.5994 41.3704 68.6841 41.3165L69.6925 40.6748L70.5498 40.6208V41.1678L70.4543 41.7404C70.439 41.8325 70.445 41.9269 70.4721 42.0163C70.4991 42.1057 70.5464 42.1876 70.6102 42.2557C70.674 42.3239 70.7526 42.3764 70.84 42.4092C70.9275 42.4421 71.0212 42.4543 71.1141 42.445L71.83 42.373L71.9638 42.5335L71.9059 42.8809C71.8815 43.0271 71.9114 43.1772 71.9899 43.3029L72.4518 44.0418L72.7405 45.389C72.7615 45.4873 72.8066 45.5788 72.8717 45.6553C72.9368 45.7319 73.0199 45.7911 73.1135 45.8277C73.2071 45.8643 73.3083 45.8771 73.4081 45.8649C73.5078 45.8528 73.603 45.8161 73.6851 45.7581L75.4476 44.5138C75.5271 44.4577 75.5919 44.3834 75.6367 44.297C75.6814 44.2106 75.7048 44.1148 75.7048 44.0175V42.6697C75.7048 42.6254 75.7 42.5813 75.6903 42.538L75.483 41.6047C75.4542 41.4751 75.3837 41.3585 75.2824 41.2727L73.9868 40.1765L73.3834 39.3716L74.1126 38.4967C74.1834 38.4118 74.2296 38.3092 74.2464 38.2L74.4452 36.9074L74.9143 35.5674L75.2171 35.7357C75.3325 35.7997 75.4657 35.8244 75.5964 35.8061C75.7271 35.7878 75.8483 35.7275 75.9416 35.6342L76.9785 34.5972C77.0877 34.488 77.1512 34.3414 77.1562 34.187L77.3636 27.6548C77.3658 27.5831 77.3554 27.5114 77.3327 27.4433L76.7105 25.5772C76.7034 25.5558 76.6951 25.5347 76.6857 25.5142L76.0638 24.1665C76.057 24.1519 76.0496 24.1376 76.0416 24.1235L75.1086 22.4646C75.0657 22.3883 75.0068 22.3222 74.9359 22.2708C74.865 22.2193 74.7839 22.1838 74.698 22.1666L73.6611 21.9592C73.5187 21.9308 73.3708 21.9543 73.2442 22.0255C73.1176 22.0966 73.0207 22.2109 72.9711 22.3474L72.8011 22.8148L72.076 22.4069V21.1567L72.6483 17.9132L74.7535 16.2658L75.7755 15.9869C75.9041 15.9519 76.0175 15.8755 76.0984 15.7697C76.1793 15.6638 76.2231 15.5342 76.2232 15.401V14.9863C76.2232 14.97 76.2225 14.9536 76.2212 14.9373L76.0607 12.9318C76.1412 12.9736 76.23 12.9969 76.3206 12.9999C76.4112 13.0029 76.5014 12.9856 76.5844 12.9492C76.6675 12.9129 76.7414 12.8584 76.8007 12.7897C76.8599 12.7211 76.9031 12.6401 76.927 12.5526L77.0946 13.3483C77.0969 13.3601 77.0996 13.3717 77.1026 13.3833L77.725 15.6644C77.7257 15.6678 77.7263 15.6711 77.727 15.6744L77.9344 16.4C77.9582 16.4831 77.9995 16.5602 78.0554 16.6261L80.9584 20.0479C80.9866 20.0809 81.0182 20.1107 81.0528 20.1369L82.8153 21.485C82.9185 21.564 83.0444 21.6077 83.1744 21.6099C83.3043 21.612 83.4316 21.5723 83.5373 21.4968C83.6431 21.4213 83.7219 21.3139 83.7621 21.1903C83.8024 21.0667 83.8019 20.9334 83.7608 20.8101L82.9387 18.3438L82.6334 17.1224C82.6325 17.1181 82.6315 17.1138 82.6304 17.1094L82.3192 15.9691C82.2955 15.8822 82.2529 15.8017 82.1943 15.7334L81.7188 15.1783V14.3663C81.7188 14.2463 81.6832 14.129 81.6167 14.0292C81.5501 13.9293 81.4554 13.8514 81.3446 13.8053L80.2826 13.3627L79.3688 11.8676L79.8405 9.50861C79.8576 9.42357 79.8562 9.33587 79.8365 9.2514L79.1109 6.14081C79.0892 6.04801 79.046 5.96164 78.9848 5.88861C78.9236 5.81558 78.846 5.75793 78.7584 5.7204L76.7654 4.86633L76.4993 4.41003L77.7026 3.9422C77.8018 3.90361 77.8891 3.83967 77.9558 3.75671C78.0226 3.67376 78.0663 3.57473 78.0827 3.46954C78.0991 3.36436 78.0876 3.25668 78.0493 3.15735C78.011 3.05801 77.9473 2.97047 77.8645 2.9035L75.687 1.14105C75.5757 1.05094 75.4362 1.00301 75.293 1.00574L75.2928 0.998535ZM75.1993 2.30243L76.2858 3.18201L75.3954 3.5282C75.3136 3.56004 75.2397 3.60926 75.1787 3.67242C75.1177 3.73559 75.0711 3.81121 75.0421 3.8941C75.0132 3.977 75.0025 4.06518 75.0109 4.15259C75.0193 4.23999 75.0466 4.32458 75.0908 4.40045L75.8167 5.64471C75.8823 5.75731 75.9824 5.84583 76.1021 5.89722L77.997 6.70911L78.6229 9.39221L78.1305 11.8552C78.1006 12.0051 78.1282 12.1606 78.2079 12.291L79.3483 14.1574C79.4151 14.2668 79.5148 14.3523 79.6331 14.4016L80.5035 14.7641V15.3961C80.5036 15.541 80.5554 15.6811 80.6498 15.7912L81.1829 16.4133L81.4561 17.4157L81.7658 18.6538C81.7696 18.669 81.7739 18.684 81.7788 18.6989L81.983 19.3115L81.8429 19.2044L79.067 15.9327L78.8967 15.3364L78.2802 13.076L77.8693 11.1237C77.8554 11.0575 77.8305 10.9941 77.7957 10.9362L77.1733 9.89935C77.1087 9.79183 77.0124 9.70692 76.8976 9.65631C76.7828 9.60571 76.6552 9.59187 76.5322 9.6167C76.4092 9.64153 76.297 9.70381 76.2108 9.79498C76.1246 9.88616 76.0688 10.0017 76.051 10.1259L75.9522 10.8172C75.8793 10.8557 75.815 10.9087 75.7632 10.9729L74.9337 12.0098C74.8371 12.1306 74.7902 12.2837 74.8026 12.4379L75.0022 14.9335L74.3151 15.121C74.2372 15.1423 74.1643 15.1789 74.1006 15.2287L71.716 17.095C71.5979 17.1875 71.5181 17.3203 71.492 17.468L70.8699 20.993C70.8638 21.0279 70.8608 21.0632 70.8609 21.0986V22.7576C70.8609 22.8654 70.8896 22.9713 70.944 23.0644C70.9984 23.1575 71.0767 23.2344 71.1706 23.2872L72.8296 24.2205C72.9065 24.2637 72.9918 24.2897 73.0797 24.2966C73.1676 24.3036 73.256 24.2913 73.3387 24.2606C73.4214 24.23 73.4964 24.1816 73.5585 24.1191C73.6207 24.0565 73.6685 23.9812 73.6986 23.8983L73.9347 23.2487L74.1863 23.2986L74.9707 24.6933L75.5685 25.9886L76.1458 27.7199L75.9494 33.9032L75.4065 34.4458L74.874 34.15C74.7966 34.1071 74.7108 34.0816 74.6225 34.0753C74.5342 34.0689 74.4457 34.082 74.363 34.1135C74.2803 34.1449 74.2054 34.1941 74.1437 34.2575C74.082 34.3209 74.0349 34.397 74.0056 34.4805L73.2797 36.5543C73.2674 36.5895 73.2583 36.6257 73.2527 36.6625L73.0711 37.8436L72.1422 38.9579C72.0547 39.063 72.0051 39.1946 72.0016 39.3313C71.9981 39.468 72.0409 39.602 72.1229 39.7114L73.056 40.9557C73.0834 40.9922 73.1148 41.0254 73.1497 41.0547L74.3414 42.0627L74.4897 42.7311V43.6974L73.7359 44.2293L73.6178 43.6775C73.603 43.6085 73.5763 43.5427 73.5389 43.4829L73.1423 42.8483L73.2085 42.4532C73.2228 42.367 73.2184 42.2786 73.1955 42.1943C73.1726 42.1099 73.1318 42.0315 73.0758 41.9644L72.5573 41.3421C72.4937 41.2659 72.4124 41.2064 72.3205 41.1688C72.2286 41.1313 72.1289 41.1168 72.0301 41.1267L71.7652 41.1527V39.9681C71.7651 39.8852 71.7481 39.803 71.7152 39.7269C71.6822 39.6507 71.634 39.5821 71.5735 39.5253C71.513 39.4685 71.4416 39.4247 71.3635 39.3965C71.2854 39.3684 71.2024 39.3566 71.1196 39.3618L69.4606 39.4656C69.3581 39.4721 69.2589 39.5044 69.1722 39.5596L68.8064 39.7925L68.7497 39.4537C68.7339 39.3593 68.696 39.2699 68.6391 39.1929C68.5822 39.1158 68.5079 39.0533 68.4222 39.0105L68.0075 38.8031C67.8788 38.7388 67.7316 38.7222 67.5919 38.7563C67.4522 38.7903 67.329 38.8729 67.2444 38.9891L65.732 41.0692L65.3549 41.1321C65.2037 41.1574 65.0676 41.2388 64.9739 41.3602C64.8802 41.4815 64.8358 41.6338 64.8497 41.7865L64.9535 42.9269C64.9672 43.0779 65.0369 43.2183 65.1488 43.3206C65.2607 43.4229 65.4068 43.4797 65.5584 43.4797H65.8587L66.1281 44.2201C66.1637 44.3182 66.2241 44.4055 66.3033 44.4734C66.3825 44.5414 66.4779 44.5879 66.5803 44.6083C66.6827 44.6287 66.7886 44.6223 66.8878 44.5899C66.9871 44.5575 67.0762 44.5 67.1468 44.4231L68.1068 43.3759H68.2834L68.0793 43.6479C68.0675 43.6637 68.0565 43.68 68.0464 43.6969L66.5947 46.0819C66.5408 46.1707 66.5105 46.2718 66.5068 46.3755C66.503 46.4793 66.526 46.5824 66.5734 46.6748C66.6208 46.7672 66.6911 46.8459 66.7775 46.9034C66.864 46.961 66.9638 46.9953 67.0674 47.0033L68.0938 47.0823L69.5609 49.6491L70.0928 51.3339L66.8615 58.3847L61.5667 60.882C61.5254 60.9016 61.4864 60.9257 61.4505 60.954L60.7645 61.4931L60.6574 60.9935C60.6401 60.9127 60.6066 60.8363 60.5587 60.7689C60.5109 60.7015 60.4498 60.6446 60.3792 60.6017C60.3086 60.5587 60.23 60.5306 60.1482 60.519C60.0663 60.5075 59.983 60.5128 59.9033 60.5345L58.7629 60.8454C58.68 60.868 58.6029 60.908 58.5366 60.9626L56.774 62.4142C56.6681 62.5014 56.5948 62.6219 56.566 62.756L56.2551 64.2076C56.2379 64.2881 56.2371 64.3712 56.2529 64.4519C56.2688 64.5326 56.3008 64.6093 56.3471 64.6773L57.9026 66.9581C57.9677 67.0537 58.0588 67.1287 58.1651 67.1743L59.3047 67.6627L59.663 70.0823V71.7051L57.0316 72.7939C56.934 72.8343 56.8487 72.8994 56.784 72.9828C56.7193 73.0662 56.6774 73.165 56.6625 73.2695L56.6118 73.6234L56.5237 73.6525V73.3549C56.5237 73.2368 56.4892 73.1212 56.4246 73.0223C56.3599 72.9235 56.2679 72.8457 56.1597 72.7983L54.7339 72.1744L54.1506 70.6495C54.1005 70.5187 54.0067 70.4091 53.8851 70.3395C53.7635 70.2698 53.6216 70.2445 53.4834 70.2675L52.872 70.3691L52.8391 70.0736C52.8225 69.925 52.7518 69.7877 52.6404 69.688C52.5291 69.5883 52.3848 69.5331 52.2353 69.5331H51.1985C51.0373 69.5331 50.8828 69.5971 50.7689 69.7111C50.6549 69.825 50.5909 69.9796 50.5909 70.1407V71.3168L50.0874 73.5314C50.0664 73.6239 50.0674 73.7199 50.0902 73.812C50.113 73.9041 50.1571 73.9895 50.2188 74.0615L50.7244 74.6514L50.8558 75.6143C50.8598 75.6423 50.8658 75.67 50.8736 75.6973L49.7789 74.8217L49.7412 72.7594L50.0121 72.326C50.0635 72.2438 50.0945 72.1504 50.1024 72.0537C50.1104 71.957 50.095 71.8598 50.0578 71.7703L49.7555 71.0447L49.8052 70.6969C49.8194 70.598 49.8088 70.4971 49.7747 70.4032L49.4812 69.5966C49.4734 69.5747 49.4643 69.5534 49.4539 69.5326L48.9523 68.5292L49.0718 67.6907C49.0946 67.5312 49.0531 67.3691 48.9564 67.2402L48.0768 66.0672C48.0003 65.9651 47.8936 65.8898 47.7718 65.8517C47.6501 65.8137 47.5195 65.8149 47.3984 65.8552C47.2774 65.8956 47.1722 65.973 47.0976 66.0765C47.023 66.18 46.9829 66.3043 46.9829 66.4318V66.1636L45.8156 66.8741L45.6289 66.8211L45.7553 66.3791C45.7789 66.297 45.7848 66.2109 45.7728 66.1263L45.5527 64.5866C45.5441 64.5263 45.5265 64.4675 45.5005 64.4124L44.8407 63.0196C44.8036 62.9412 44.7502 62.8717 44.6841 62.8157L43.8943 62.1473L43.495 60.0849C43.4703 59.9577 43.4056 59.8417 43.3104 59.7538C43.2151 59.666 43.0942 59.6109 42.9654 59.5966L42.3056 59.5226C42.2218 59.5134 42.137 59.5216 42.0566 59.5469C41.9761 59.5721 41.9018 59.6139 41.8384 59.6694L41.4168 60.0385L38.923 60.1055C38.8343 60.108 38.7472 60.1298 38.6679 60.1695L37.7879 60.6095C37.6717 60.6676 37.5772 60.7615 37.5182 60.8773C37.4593 60.9931 37.439 61.1248 37.4604 61.253L37.4969 61.4719L37.2937 61.8107L35.5409 62.3299C35.4708 62.3506 35.405 62.3838 35.3466 62.4279L32.9273 64.2607C32.9052 64.2776 32.8842 64.296 32.8647 64.3157L32.6356 64.5444L31.9479 64.6593C31.8434 64.6767 31.7452 64.7212 31.6631 64.7883L30.9781 65.3487L30.3263 65.4671C30.1771 65.4943 30.0433 65.5764 29.9515 65.6971C29.8596 65.8179 29.8163 65.9687 29.83 66.1198L30.035 68.376L29.5912 69.3271C29.5589 69.3961 29.5399 69.4703 29.5351 69.5463L29.4778 70.4648L28.6157 71.2122L27.7274 71.7198C27.6219 71.4648 27.5823 71.3714 27.4325 71.0043C27.291 70.6574 27.1473 70.3014 27.0356 70.0172C26.9239 69.7329 26.8291 69.4446 26.8454 69.5098C26.8054 69.3501 26.7099 69.0393 26.555 68.5228C26.4 68.0064 26.2006 67.3462 26.0035 66.6953C25.6188 65.4252 25.2612 64.2506 25.2431 64.1911L24.8889 59.8686L25.3122 57.7527C25.3347 57.6403 25.3249 57.5238 25.2839 57.4167C25.243 57.3096 25.1725 57.2163 25.0808 57.1475L24.7874 56.9277C24.722 56.8787 24.6474 56.8434 24.5681 56.8239C24.4887 56.8044 24.4063 56.8011 24.3256 56.8142C24.245 56.8273 24.1678 56.8565 24.0987 56.9001C24.0296 56.9438 23.97 57.0008 23.9235 57.068L23.4447 57.7593H23.1124L22.7392 57.0131L23.0658 56.9941C23.19 56.9868 23.309 56.9414 23.4066 56.8643C23.5043 56.7871 23.5758 56.6818 23.6117 56.5626C23.6476 56.4435 23.646 56.3161 23.6071 56.1979C23.5683 56.0796 23.4941 55.9762 23.3945 55.9015L21.7913 54.6988L20.9701 52.0991C20.937 51.9943 20.8761 51.9003 20.7938 51.8274C20.7115 51.7544 20.6109 51.7052 20.5029 51.6849L17.1217 51.0509L14.141 48.8312L14.5154 47.7086C14.5459 47.6173 14.5542 47.52 14.5397 47.4248C14.5252 47.3296 14.4882 47.2393 14.4319 47.1612C14.3756 47.0831 14.3016 47.0195 14.2159 46.9756C14.1302 46.9317 14.0353 46.9088 13.939 46.9088H12.2931L11.935 46.039C11.9104 45.9792 11.8765 45.9237 11.8344 45.8746L10.6554 44.4992L10.5875 41.7827C10.5847 41.6724 10.552 41.5651 10.4928 41.472C10.4337 41.379 10.3503 41.3038 10.2517 41.2545L9.22522 40.7413C9.13943 40.6985 9.04472 40.6765 8.94882 40.6772C8.85293 40.678 8.75857 40.7015 8.67347 40.7457C8.58837 40.7899 8.51495 40.8536 8.4592 40.9316C8.40345 41.0097 8.36696 41.0998 8.35271 41.1946L7.91275 44.1272C7.90176 44.201 7.90448 44.2763 7.92075 44.3491L8.19933 45.6037V45.99L8.06464 46.6643C8.03412 46.818 8.06414 46.9775 8.14845 47.1096C8.23275 47.2417 8.36481 47.3361 8.51706 47.3731L8.49426 47.6932C8.49167 47.7313 8.49267 47.7695 8.49726 47.8074L8.64382 49.0537C8.65749 49.1697 8.7043 49.2793 8.77864 49.3694C8.85299 49.4595 8.95171 49.5262 9.06301 49.5616L10.676 50.0749C10.7628 50.1026 10.8547 50.1104 10.945 50.0978C11.0352 50.0851 11.1214 50.0524 11.1973 50.0019L12.0772 49.4154L12.16 50.7795C12.1671 50.8982 12.2089 51.0121 12.2801 51.1073L13.0951 52.1937L13.3956 53.1953L12.5718 53.9642C12.563 53.9723 12.5545 53.9806 12.5463 53.9892L11.2243 55.3773L7.52273 55.9255L4.23976 55.8545L2.41493 55.5843L1.57031 55.0873V52.6612L2.15208 51.627C2.21933 51.5074 2.24411 51.3685 2.22238 51.233L1.63883 47.5851L1.43146 45.5126L2.13665 42.8324C2.16198 42.7363 2.16335 42.6355 2.14065 42.5388L1.87573 41.412L2.51505 37.6475C2.53165 37.5492 2.52382 37.4484 2.49225 37.3538L2.38129 37.0203L3.03724 36.2549C3.10306 36.1781 3.14864 36.0859 3.16985 35.987L3.56353 34.1497L5.73576 32.4528C5.82996 32.3792 5.90034 32.2794 5.93809 32.166L6.22854 31.2948L6.96933 30.8958C7.04862 30.8531 7.11742 30.7934 7.17077 30.7208C7.22412 30.6483 7.26068 30.5647 7.2778 30.4763C7.29492 30.3879 7.29217 30.2968 7.26976 30.2096C7.24735 30.1224 7.20584 30.0413 7.14822 29.972L6.41485 29.0921C6.36589 29.0334 6.30631 28.9845 6.23922 28.9479L5.70847 28.6583L5.5987 27.7238C5.58125 27.576 5.51017 27.4398 5.39895 27.3409C5.28772 27.2421 5.14408 27.1874 4.99527 27.1874H4.68732L4.58972 25.5792L6.13449 23.7256L6.33118 24.1184C6.36955 24.195 6.42368 24.2626 6.49002 24.3168C6.55635 24.371 6.6334 24.4105 6.71609 24.4329C6.79879 24.4552 6.88528 24.4598 6.96987 24.4464C7.05447 24.4329 7.13526 24.4017 7.20696 24.3548L7.33839 24.574C7.38141 24.6457 7.43877 24.7077 7.50686 24.7562C7.57496 24.8047 7.65233 24.8387 7.73414 24.856L8.59093 25.0363L9.01428 25.3469V26.1793C9.01427 26.2447 9.02481 26.3096 9.04548 26.3716L9.25285 26.9937C9.2676 27.038 9.2874 27.0804 9.31185 27.1201L10.1413 28.468C10.1957 28.5563 10.2718 28.6292 10.3624 28.6799C10.453 28.7305 10.555 28.7571 10.6587 28.7571H11.644C11.729 28.7569 11.8129 28.7388 11.8905 28.7041L12.3572 28.4967C12.4541 28.4536 12.5381 28.3859 12.6008 28.3003C12.6635 28.2147 12.7026 28.1142 12.7144 28.0087L12.7752 27.4616L12.9081 28.4384C12.9136 28.4788 12.9231 28.5185 12.9366 28.557L13.5777 30.388L13.589 30.3651C13.5441 30.4548 13.5221 30.5542 13.525 30.6545C13.5279 30.7549 13.5556 30.8529 13.6056 30.9399L14.1886 31.9522C14.182 31.9581 14.1756 31.9641 14.1693 31.9702L13.858 32.2814L13.3398 32.7997C13.2891 32.8504 13.2478 32.9097 13.2178 32.9747L12.5954 34.3228C12.5546 34.4112 12.5357 34.5081 12.5402 34.6054C12.5447 34.7027 12.5725 34.7974 12.6212 34.8817L13.7619 36.8516C13.8386 36.9843 13.9626 37.083 14.109 37.1281L15.4571 37.5426C15.6046 37.5879 15.7638 37.5754 15.9025 37.5076C16.0411 37.4398 16.1487 37.3219 16.2035 37.1776L17.1885 34.5856C17.2267 34.4851 17.2376 34.3762 17.22 34.27L17.2046 34.178L18.1456 33.9798C18.2886 33.9497 18.416 33.8691 18.5044 33.7527C18.5928 33.6363 18.6362 33.492 18.6268 33.3461L18.523 31.7391C18.5178 31.6586 18.4965 31.5799 18.4606 31.5077C18.4246 31.4355 18.3746 31.3711 18.3135 31.3184C18.3267 31.1835 18.2945 31.0481 18.2218 30.9337L17.6632 30.0557L17.9258 29.3995L18.2337 29.0358L19.4302 29.1178C19.5382 29.1252 19.6463 29.1037 19.7432 29.0553C19.8402 29.0069 19.9224 28.9335 19.9814 28.8427L20.6554 27.8059C20.7266 27.6964 20.7606 27.5669 20.7523 27.4366C20.7441 27.3062 20.6941 27.182 20.6097 27.0823L20.1265 26.5112L20.0844 26.3575L20.8394 25.351C20.8879 25.2862 20.923 25.2124 20.9426 25.1339L21.2227 24.0139L21.5855 23.5475L22.6612 23.9926C22.701 24.0089 22.7424 24.0209 22.7847 24.0285L23.6136 24.1793L24.0521 25.1354C24.1098 25.2613 24.2088 25.3637 24.3327 25.4256L24.7629 25.6411L25.1076 25.9857C25.1743 26.0524 25.2557 26.1027 25.3452 26.1325L26.5895 26.5473C26.6877 26.58 26.7927 26.5871 26.8944 26.5679C26.9962 26.5486 27.0913 26.5037 27.1708 26.4374C27.2503 26.371 27.3115 26.2855 27.3487 26.1888C27.3858 26.0922 27.3977 25.9876 27.3831 25.8851L27.1321 24.1273L28.1064 23.6028C28.1975 23.5538 28.2746 23.4822 28.3303 23.395C28.3861 23.3078 28.4186 23.2078 28.4249 23.1044C28.4311 23.0011 28.4108 22.8979 28.366 22.8046C28.3212 22.7113 28.2532 22.631 28.1687 22.5714L26.6633 21.5089V21.1547L27.8551 21.287C27.94 21.2965 28.026 21.2878 28.1074 21.2618C28.1888 21.2357 28.2637 21.1928 28.3274 21.1358C28.3911 21.0788 28.442 21.009 28.4768 20.931C28.5117 20.853 28.5297 20.7685 28.5297 20.683V19.3795L29.3168 19.3184C29.3994 19.3121 29.4798 19.2889 29.5531 19.2503C29.6264 19.2117 29.6911 19.1586 29.7431 19.0941L32.3099 15.9111L34.2611 14.0576L37.0433 13.0639C37.1088 13.0405 37.1699 13.006 37.2237 12.9619L39.4748 11.1202L41.7631 9.68994C41.8131 9.82999 41.9127 9.9468 42.0431 10.0183L43.1835 10.6404C43.2289 10.6652 43.2773 10.6839 43.3274 10.6964L44.9864 11.1109C45.0931 11.1375 45.2049 11.1347 45.3101 11.1027C45.4153 11.0708 45.5098 11.0109 45.5837 10.9294C45.6575 10.848 45.7078 10.7481 45.7294 10.6403C45.7509 10.5325 45.7427 10.4209 45.7058 10.3173L45.4644 9.64111L47.0263 9.57312C47.1139 9.56929 47.1996 9.54659 47.2775 9.50653C47.3555 9.46647 47.4238 9.40997 47.4779 9.341C47.532 9.27204 47.5705 9.19218 47.5908 9.10693C47.6112 9.02168 47.6128 8.93305 47.5956 8.84711L47.5906 8.82111L49.9252 7.87006C49.936 7.8657 49.9466 7.86099 49.9571 7.85602L51.9247 6.91882L53.3591 7.34064L53.6718 7.57532L52.6937 9.2868C52.64 9.38076 52.6124 9.48739 52.6137 9.59558C52.615 9.70378 52.6452 9.80965 52.7011 9.90228C52.757 9.99492 52.8366 10.0709 52.9318 10.1225C53.0269 10.1741 53.1341 10.1993 53.2422 10.1956L56.249 10.0917C56.3242 10.0891 56.3982 10.0724 56.4673 10.0427L57.9189 9.42065C58.0043 9.38397 58.0801 9.32819 58.1405 9.25763C58.201 9.18707 58.2444 9.10358 58.2675 9.01361L59.3996 9.29633L60.6184 10.8903C60.7106 11.0109 60.8445 11.0925 60.9939 11.1193C61.1433 11.146 61.2973 11.1159 61.4256 11.0349L63.3955 9.79065C63.5103 9.71809 63.5975 9.60914 63.6432 9.4812C63.6889 9.35327 63.6903 9.21371 63.6474 9.08484L63.2923 8.0191L64.5371 7.36414L66.2326 8.16724C66.3362 8.21623 66.4516 8.23487 66.5654 8.22107C66.6792 8.20727 66.7868 8.16159 66.8758 8.08923L68.3449 6.89575L69.3453 6.9787C69.4868 6.99052 69.6279 6.95245 69.7443 6.87103L71.8177 5.41943C71.8996 5.36211 71.9661 5.28546 72.0113 5.19629C72.0565 5.10712 72.079 5.00821 72.0768 4.90826C72.0746 4.80832 72.0478 4.71045 71.9987 4.62335C71.9497 4.53625 71.8799 4.4626 71.7955 4.40894L71.2185 4.04163L71.4306 3.76904L73.9686 2.79303C73.9713 2.79305 73.974 2.79305 73.9766 2.79303L75.2007 2.30322L75.1993 2.30243ZM9.3892 42.4763L9.4459 44.7455C9.44942 44.8852 9.50096 45.0194 9.59186 45.1255L10.8483 46.5913L11.3241 47.7475C11.3662 47.8495 11.4353 47.9382 11.5239 48.004C11.6125 48.0697 11.7174 48.1101 11.8273 48.1207L10.7658 48.8283L9.80428 48.5224L9.71018 47.7223L9.77958 46.753C9.78848 46.6258 9.75714 46.499 9.69 46.3906C9.62286 46.2822 9.52332 46.1977 9.40548 46.149C9.41118 46.1163 9.41419 46.0832 9.41448 46.05V45.5368C9.41446 45.4925 9.4096 45.4483 9.39998 45.4051L9.13149 44.1955L9.3893 42.4763L9.3892 42.4763ZM51.2974 76.1405L52.4936 76.824L53.6707 78.4539L53.8606 80.1614C53.8672 80.2207 53.8825 80.2787 53.906 80.3336L53.9873 80.5232L52.285 79.4896L51.3146 76.1903C51.3096 76.1734 51.3039 76.1567 51.2974 76.1403L51.2974 76.1405Z" fill="black"/>
<path fill-rule="evenodd" clip-rule="evenodd" d="M68.3581 74.3026C68.2698 74.3026 68.1825 74.3219 68.1024 74.359C68.0223 74.3962 67.9512 74.4503 67.8941 74.5177L66.7537 75.8654C66.6936 75.9363 66.6506 76.0202 66.628 76.1105L66.5152 76.562L65.2392 76.8013C65.1283 76.8221 65.0253 76.8733 64.9419 76.9493C64.8585 77.0254 64.7979 77.123 64.7669 77.2316L64.34 78.7257L62.7415 79.2009C62.6365 79.2322 62.5418 79.2912 62.4676 79.3719C62.3934 79.4527 62.3423 79.552 62.32 79.6593L62.1933 80.267L61.6074 80.1028L61.2665 79.8901C61.1345 79.8077 60.9759 79.7789 60.8234 79.8099C60.6709 79.841 60.5361 79.9293 60.4468 80.0568L59.7211 81.0938C59.6587 81.1829 59.6214 81.2872 59.6131 81.3958L59.5612 82.0695C59.5548 82.1529 59.5658 82.2369 59.5933 82.3159C59.6208 82.395 59.6644 82.4674 59.7213 82.5288C59.7782 82.5902 59.8471 82.6393 59.9238 82.6729C60.0005 82.7064 60.0833 82.7236 60.167 82.7236H59.8876C59.9224 82.8698 60.0101 82.998 60.1338 83.0833L60.7215 83.4875L60.8052 84.6984C60.8112 84.7842 60.8353 84.8677 60.876 84.9435C60.9167 85.0193 60.973 85.0855 61.0412 85.1379C61.1094 85.1903 61.1879 85.2277 61.2716 85.2474C61.3553 85.2672 61.4423 85.269 61.5267 85.2527L62.7161 85.0225L62.8084 85.1763C62.8844 85.3029 63.0039 85.3976 63.1446 85.4425C63.2853 85.4874 63.4376 85.4796 63.5729 85.4204L64.3268 85.0906L64.4686 85.0706L64.4636 85.0555C64.4907 85.137 64.5348 85.2117 64.5929 85.2749C64.651 85.3381 64.7219 85.3882 64.8008 85.422C64.8797 85.4558 64.9648 85.4726 65.0507 85.4711C65.1365 85.4696 65.221 85.4499 65.2987 85.4133L65.469 85.3334L65.4797 85.3903C65.4985 85.4901 65.5419 85.5837 65.6062 85.6624C65.6704 85.741 65.7533 85.8023 65.8474 85.8407C65.9414 85.8791 66.0436 85.8931 66.1445 85.8818C66.2455 85.8705 66.3419 85.8341 66.4252 85.7759L67.9806 84.6874C68.0595 84.6321 68.124 84.559 68.169 84.4739L68.6357 83.5924C68.692 83.4859 68.7154 83.365 68.7029 83.2451C68.6904 83.1253 68.6425 83.0119 68.5654 82.9193L68.65 83.021L69.0538 82.5906L69.5133 82.1307C69.5763 82.0678 69.6247 81.9917 69.655 81.908C69.6854 81.8242 69.6969 81.7349 69.6889 81.6462L69.6607 81.3365L70.2262 80.6954L70.8539 80.2128C70.937 80.1488 71.0022 80.0643 71.043 79.9678C71.0838 79.8712 71.099 79.7658 71.087 79.6616C71.075 79.5575 71.0362 79.4582 70.9745 79.3734C70.9128 79.2887 70.8301 79.2212 70.7347 79.1779L70.2986 78.9799C70.3262 78.8538 70.313 78.7222 70.2609 78.6041C70.2088 78.4861 70.1205 78.3877 70.0087 78.3232L69.7702 78.1859C69.8435 78.0919 69.8876 77.9784 69.8969 77.8595L69.9117 77.6664L70.1093 77.6354C70.1951 77.6221 70.2771 77.5907 70.3498 77.5431C70.4224 77.4955 70.484 77.4328 70.5304 77.3594C70.5768 77.2859 70.6069 77.2034 70.6187 77.1173C70.6305 77.0313 70.6237 76.9437 70.5988 76.8605L70.5742 76.7786L71.0726 76.4562C71.1826 76.3849 71.2666 76.2799 71.312 76.157C71.3575 76.034 71.362 75.8998 71.3249 75.774C71.2877 75.6483 71.211 75.538 71.106 75.4595C71.001 75.381 70.8734 75.3386 70.7424 75.3385H70.4282L70.3736 75.202C70.3337 75.1026 70.2683 75.0154 70.1839 74.9493C70.0995 74.8833 69.9991 74.8409 69.893 74.8262L69.895 74.8422C69.8941 74.8368 69.8931 74.8315 69.892 74.8262C69.8868 74.8261 69.8815 74.8261 69.8763 74.8262H69.892C69.8718 74.6811 69.7998 74.5481 69.6894 74.4518C69.5789 74.3555 69.4374 74.3024 69.2909 74.3022H68.3579L68.3581 74.3026ZM68.7391 75.4436C68.7543 75.5807 68.8157 75.7087 68.9132 75.8063C69.0108 75.9039 69.1386 75.9653 69.2757 75.9806L69.3805 75.9927L69.4229 76.0983C69.3669 76.1568 69.3232 76.2258 69.2943 76.3014C69.2654 76.377 69.252 76.4577 69.2547 76.5386H69.2507C69.1151 76.5594 68.9905 76.6255 68.8973 76.7261C68.804 76.8267 68.7476 76.956 68.7371 77.0928L68.7208 77.3083L68.1441 77.4249C68.0231 77.4494 67.9124 77.5102 67.8268 77.5991C67.7412 77.6881 67.6847 77.801 67.6649 77.9229C67.6451 78.0447 67.6628 78.1696 67.7158 78.2811C67.7687 78.3926 67.8544 78.4854 67.9613 78.547L68.7704 79.0125C68.7203 79.1555 68.7255 79.3121 68.7849 79.4515C68.8444 79.591 68.9538 79.7031 69.0917 79.766L69.3305 79.8746L68.5766 80.729C68.5219 80.791 68.4805 80.8635 68.4548 80.942C68.4291 81.0206 68.4197 81.1036 68.4271 81.1859L68.4532 81.4728L68.1877 81.7383C68.1831 81.7429 68.1786 81.7476 68.1741 81.7523L67.3965 82.5818C67.2955 82.6896 67.2371 82.8306 67.2325 82.9783C67.2279 83.126 67.2772 83.2703 67.3713 83.3843L67.1639 83.7759L66.4932 84.2456C66.4647 84.1658 66.4199 84.0929 66.3617 84.0315C66.3034 83.97 66.2329 83.9214 66.1547 83.8888C66.0766 83.8562 65.9925 83.8402 65.9078 83.842C65.8231 83.8439 65.7398 83.8634 65.6631 83.8993L65.3726 84.0358C65.3075 83.9477 65.2198 83.879 65.1188 83.8367C65.0178 83.7944 64.9073 83.7802 64.7989 83.7955L64.0732 83.8993C64.0189 83.9071 63.9659 83.9223 63.9157 83.9443L63.5757 84.093L63.5395 84.033C63.4754 83.9261 63.3799 83.8416 63.2661 83.7908C63.1522 83.74 63.0255 83.7255 62.9031 83.7491L61.9701 83.9298L61.9137 83.1116C61.9074 83.0203 61.8806 82.9317 61.8352 82.8522C61.7899 82.7727 61.7272 82.7044 61.6517 82.6526L61.0513 82.24L61.0302 82.0492C61.0126 81.8935 60.9355 81.7507 60.8151 81.6505L61.1118 81.2266L61.0376 81.1805C61.0867 81.2113 61.1399 81.2348 61.1957 81.2505L62.4916 81.6136C62.5718 81.6361 62.6557 81.6418 62.7382 81.6305C62.8207 81.6192 62.9 81.591 62.9712 81.5477C63.0423 81.5045 63.1039 81.4471 63.1519 81.379C63.1999 81.311 63.2335 81.2339 63.2505 81.1523L63.4356 80.2632L65.0059 79.7965C65.1038 79.7674 65.1928 79.7141 65.2647 79.6415C65.3366 79.5688 65.389 79.4791 65.417 79.3809L65.8324 77.9274L67.1223 77.6857C67.2366 77.6642 67.3423 77.6105 67.4269 77.5308C67.5115 77.451 67.5715 77.3487 67.5997 77.236L67.7726 76.5435L68.6398 75.5188H68.7475L68.7395 75.4448L68.7391 75.4436Z" fill="black"/>
<path fill-rule="evenodd" clip-rule="evenodd" d="M45.0139 78.0166C44.9279 78.0191 44.8434 78.04 44.766 78.0776C44.6886 78.1153 44.6201 78.1689 44.565 78.235L44.382 78.4548C44.3186 78.5309 44.2748 78.6213 44.2543 78.7181C44.2339 78.815 44.2374 78.9153 44.2645 79.0105L44.5576 80.0369C44.5976 80.1769 44.6866 80.2979 44.8083 80.3778L46.0081 81.1664L47.0099 82.4445C47.0689 82.5196 47.1447 82.5798 47.2312 82.6201L48.1115 83.031L48.5725 84.199C48.6126 84.3005 48.6793 84.3894 48.7656 84.4562L49.8336 85.283L51.2488 87.2293C51.2898 87.2856 51.3401 87.3344 51.3977 87.3737L54.5139 89.4996C54.6369 89.5836 54.7864 89.6194 54.934 89.6005L56.0703 89.4539C56.1952 89.4377 56.3121 89.3832 56.4047 89.2977C56.4973 89.2123 56.561 89.1002 56.5871 88.9769L56.9903 87.0707C57.0172 86.9432 57.0025 86.8104 56.9482 86.6919L56.545 85.812C56.509 85.7335 56.4567 85.6636 56.3916 85.6069C56.3265 85.5503 56.25 85.5081 56.1673 85.4833L55.3642 85.2424L55.21 84.8015C55.1775 84.7088 55.1231 84.6253 55.0513 84.5582C54.9795 84.4912 54.8926 84.4425 54.7979 84.4164L54.5 84.3345L54.5727 84.2117C54.6157 84.1389 54.643 84.058 54.6529 83.9741C54.6628 83.8902 54.6551 83.8051 54.6304 83.7244C54.6056 83.6436 54.5642 83.5689 54.5089 83.505C54.4536 83.4411 54.3857 83.3895 54.3093 83.3534L53.0452 82.7565L51.4817 81.5837C51.41 81.5302 51.3275 81.493 51.2398 81.4751C51.1522 81.4572 51.0616 81.4588 50.9747 81.4799L49.9286 80.6124C49.8847 80.5761 49.8359 80.5462 49.7836 80.5234L48.7188 80.0591V79.9801C48.7188 79.8895 48.6985 79.8 48.6595 79.7183C48.6204 79.6365 48.5635 79.5645 48.493 79.5076L47.5401 78.7377C47.4648 78.6769 47.3762 78.6349 47.2814 78.6154L45.5091 78.2487C45.4504 78.174 45.3751 78.1141 45.2891 78.0739C45.2031 78.0336 45.1089 78.014 45.014 78.0167L45.0139 78.0166ZM45.7425 79.5376L46.891 79.7753L47.5036 80.2704V80.4567C47.5036 80.5749 47.5382 80.6906 47.603 80.7896C47.6678 80.8885 47.7601 80.9664 47.8685 81.0137L49.2192 81.6025L50.656 82.7939C50.7335 82.8581 50.8257 82.902 50.9243 82.9218C51.023 82.9415 51.125 82.9364 51.2212 82.907L52.3654 83.7653C52.3982 83.7897 52.4334 83.8108 52.4705 83.8283L53.1875 84.1668L53.0502 84.3993C53.0027 84.4797 52.9744 84.5699 52.9674 84.663C52.9604 84.756 52.975 84.8495 53.01 84.936C53.045 85.0226 53.0994 85.0999 53.1691 85.162C53.2388 85.2241 53.3218 85.2693 53.4118 85.2941L54.168 85.5026L54.3193 85.9356C54.351 86.0261 54.4037 86.1078 54.4731 86.1741C54.5424 86.2403 54.6265 86.2892 54.7183 86.3168L55.5547 86.5678L55.76 87.0151L55.4873 88.3032L55.0079 88.3652L52.1696 86.4285L50.7655 84.4978C50.7317 84.4513 50.6914 84.4099 50.6459 84.3748L49.6417 83.5968L49.1531 82.3591C49.096 82.2146 48.9857 82.0973 48.8448 82.0316L47.8768 81.5801L46.9031 80.3379C46.8625 80.2861 46.8137 80.2413 46.7586 80.2051L45.7425 79.5371V79.5376Z" fill="black"/>
<path fill-rule="evenodd" clip-rule="evenodd" d="M74.0646 87.7305C73.7251 87.7305 73.2367 87.7945 72.5931 87.8851C71.9496 87.9751 71.188 88.0954 70.4568 88.215C69.0384 88.4469 67.8146 88.665 67.7375 88.6787C67.6625 88.6687 66.8419 88.5907 65.9106 88.5028C65.4242 88.4568 64.9286 88.4109 64.5343 88.3765C64.1401 88.3415 63.9273 88.3174 63.7274 88.3174C63.4795 88.3174 62.9385 88.3554 62.3686 88.3914C61.7988 88.4284 61.2662 88.4655 61.2662 88.4655C61.2467 88.4678 61.2273 88.4712 61.2081 88.4755L59.5458 88.7522L58.2503 88.5479C58.1487 88.5318 58.0447 88.5417 57.948 88.5768L56.335 89.1633C56.2137 89.2074 56.1096 89.2889 56.0378 89.3961C55.966 89.5033 55.9302 89.6305 55.9355 89.7594C55.9408 89.8883 55.987 90.0123 56.0674 90.1132C56.1479 90.214 56.2583 90.2866 56.3828 90.3206L58.8021 90.9805C58.8542 90.9945 58.908 91.0016 58.962 91.0015H65.5603C65.5966 91.0014 65.6329 90.998 65.6686 90.9915L72.56 89.7451C72.5851 89.7407 72.6098 89.7347 72.6342 89.7272C72.6342 89.7272 73.2832 89.5237 73.8345 89.3109C74.1102 89.2045 74.3294 89.1307 74.5667 88.9623C74.626 88.9203 74.6957 88.8814 74.7862 88.736C74.8315 88.663 74.8862 88.5481 74.8847 88.3882C74.8827 88.2284 74.8002 88.0522 74.7085 87.9561C74.525 87.7639 74.3994 87.7675 74.3092 87.7516C74.219 87.7356 74.1457 87.7336 74.0647 87.7336L74.0646 87.7305ZM63.7274 89.5322C63.6742 89.5322 64.0388 89.5532 64.4281 89.5872C64.8174 89.6212 65.3114 89.6673 65.7964 89.7128C65.8295 89.7128 65.8284 89.7128 65.8614 89.7228L65.5057 89.7867H60.731L61.3781 89.6791C61.4043 89.6791 61.8947 89.6431 62.4467 89.6071C63.0132 89.5711 63.6821 89.535 63.7274 89.535L63.7274 89.5322Z" fill="black"/>
<path fill-rule="evenodd" clip-rule="evenodd" d="M71.0303 61.7187C70.8729 61.7241 70.7238 61.7905 70.6143 61.9038C70.5049 62.0171 70.4438 62.1684 70.4437 62.3259V62.5932L70.2604 64.7352L69.9794 64.8282C69.8486 64.8718 69.7366 64.9586 69.6616 65.0744C69.5867 65.1901 69.5534 65.3279 69.5671 65.4651L69.7139 66.9313C69.7233 67.025 69.7543 67.1152 69.8045 67.1948C69.8547 67.2744 69.9227 67.3413 70.0032 67.3902L72.0559 68.6364C72.1722 68.707 72.3088 68.7365 72.4439 68.7202C72.5789 68.7039 72.7046 68.6427 72.8008 68.5465L73.6804 67.6666C73.7419 67.605 73.7895 67.531 73.8199 67.4494C73.8504 67.3679 73.8629 67.2808 73.8568 67.194C73.8506 67.1072 73.8259 67.0227 73.7842 66.9463C73.7426 66.8699 73.685 66.8033 73.6154 66.7511L72.624 66.0073C72.7152 65.8802 72.7295 65.8665 72.8364 65.7098C72.9787 65.5011 73.1221 65.282 73.2387 65.0799C73.297 64.9789 73.3487 64.8833 73.3929 64.783C73.4372 64.6826 73.492 64.6042 73.492 64.3777C73.492 64.1272 73.4441 64.0149 73.3923 63.8152C73.3405 63.6155 73.2746 63.3899 73.209 63.1744C73.0778 62.7435 72.9476 62.3526 72.9476 62.3526C72.9126 62.2478 72.8498 62.1546 72.7658 62.0829C72.6818 62.0111 72.5798 61.9637 72.4709 61.9456L71.1513 61.7258C71.1114 61.7184 71.0708 61.7151 71.0302 61.7158L71.0303 61.7187ZM71.6254 63.0374L71.9048 63.0834C71.9533 63.2328 71.9757 63.2968 72.0464 63.5287C72.1091 63.7348 72.1716 63.9491 72.2161 64.1206C72.2514 64.2567 72.2587 64.3218 72.2645 64.325C72.2463 64.363 72.2233 64.41 72.1865 64.4733C72.0969 64.6287 71.9652 64.8312 71.8325 65.0257C71.5673 65.4148 71.2985 65.7731 71.2985 65.7731C71.2506 65.837 71.2158 65.9096 71.196 65.9869C71.1762 66.0642 71.1718 66.1447 71.1831 66.2237C71.1944 66.3027 71.2211 66.3787 71.2618 66.4474C71.3025 66.516 71.3563 66.576 71.4202 66.6239L72.3259 67.3033L72.2787 67.3503L70.893 66.5086L70.8248 65.8271L71.0238 65.7611C71.1364 65.7236 71.2355 65.6539 71.309 65.5607C71.3824 65.4675 71.4269 65.3548 71.4371 65.2366L71.6255 63.0371L71.6254 63.0374Z" fill="black"/>
<path fill-rule="evenodd" clip-rule="evenodd" d="M75.7301 19.4506C75.6282 19.4544 75.5288 19.4839 75.4412 19.5363C75.3536 19.5886 75.2806 19.6622 75.2289 19.7502C75.1772 19.8382 75.1486 19.9378 75.1455 20.0398C75.1425 20.1418 75.1652 20.2429 75.2115 20.3338L76.4703 22.8012C76.4726 22.8056 76.4749 22.8099 76.4773 22.8142L78.0957 25.8106C78.1024 25.8229 78.1095 25.8349 78.1171 25.8466L79.7354 28.4024C79.8012 28.5062 79.8969 28.5876 80.0099 28.6359C80.1229 28.6841 80.2478 28.697 80.3683 28.6728C80.4887 28.6486 80.599 28.5885 80.6846 28.5003C80.7702 28.4122 80.827 28.3001 80.8477 28.179L80.9379 27.6503C80.9524 27.5648 80.9484 27.477 80.9262 27.3931L80.3038 25.0402L80.0386 23.481C80.0167 23.3522 79.9539 23.2339 79.8594 23.1436L76.173 19.6185C76.1142 19.5624 76.0447 19.5185 75.9687 19.4897C75.8927 19.4608 75.8116 19.4476 75.7303 19.4506H75.7301ZM77.9668 23.0151L78.8743 23.8829L79.0757 25.0681L77.9668 23.0151V23.0151Z" fill="black"/>
<path fill-rule="evenodd" clip-rule="evenodd" d="M79.4605 29.3867C79.3662 29.3902 79.2739 29.4156 79.1911 29.4609C79.1083 29.5062 79.0372 29.5702 78.9834 29.6477C78.9297 29.7253 78.8947 29.8144 78.8813 29.9078C78.8679 30.0012 78.8765 30.0965 78.9063 30.1861L79.2582 31.2409L79.6171 33.323C79.6194 33.3354 79.6221 33.3478 79.6251 33.3601L80.3416 36.3701V38.3031L79.9022 39.3579C79.8217 39.3606 79.7426 39.3793 79.6694 39.4129C79.5962 39.4465 79.5304 39.4943 79.4758 39.5536C79.4213 39.6129 79.3791 39.6824 79.3516 39.7581C79.3242 39.8339 79.3121 39.9143 79.316 39.9948L79.3688 41.0462L77.6214 41.8294C77.5208 41.8746 77.4343 41.9463 77.3713 42.0368L76.1983 43.723C76.1792 43.7506 76.1625 43.7797 76.1482 43.81L75.4881 45.203C75.4438 45.2965 75.4242 45.3998 75.4311 45.5031C75.4379 45.6063 75.471 45.7062 75.5273 45.7931L76.3197 47.018L76.8941 48.0952C76.9453 48.1914 77.0215 48.2719 77.1147 48.3285C77.2078 48.3851 77.3144 48.4156 77.4233 48.4168C77.5323 48.4181 77.6395 48.3899 77.7339 48.3355C77.8283 48.281 77.9063 48.2022 77.9597 48.1073L78.6195 46.9342C78.6766 46.8327 78.7034 46.717 78.6966 46.6007L78.6322 45.5042C78.6556 45.4937 78.6782 45.4816 78.7001 45.4682L80.0197 44.6616C80.1263 44.5965 80.2102 44.5 80.26 44.3855L80.8741 42.9738L81.1699 42.8999C81.2863 42.8708 81.3915 42.808 81.4722 42.7193L82.2053 41.9129C82.207 41.9095 82.2086 41.9062 82.2103 41.9029L83.383 40.583C83.4487 40.5091 83.4954 40.4203 83.5191 40.3243C83.5427 40.2283 83.5425 40.128 83.5186 40.0321L82.9594 37.796L83.092 36.7357C83.103 36.6485 83.0949 36.56 83.0683 36.4762L82.555 34.8631C82.5223 34.7603 82.4627 34.668 82.3824 34.5958L81.7611 34.0365L81.5099 33.3546L82.3325 33.0514C82.4309 33.0151 82.5182 32.9541 82.586 32.8741C82.6538 32.7942 82.6998 32.698 82.7194 32.5951L83.0128 31.0553C83.0331 30.9488 83.0244 30.8389 82.9879 30.7369C82.9513 30.6349 82.8881 30.5444 82.8048 30.4751L82.3649 30.1084C82.2807 30.0383 82.1792 29.9924 82.071 29.9753C81.9629 29.9582 81.8521 29.9707 81.7505 30.0114L81.2705 30.2033L79.7551 29.4456C79.664 29.3999 79.5629 29.3779 79.461 29.3816L79.4605 29.3867ZM80.4793 31.1715L80.9706 31.4173C81.0474 31.4555 81.1314 31.4771 81.2172 31.4806C81.3029 31.484 81.3884 31.4693 81.4681 31.4373L81.7229 31.3352L81.5894 32.0348L80.6857 32.3679L80.4793 31.1712V31.1715ZM81.3343 35.2929L81.4464 35.3941L81.8692 36.7227L81.7392 37.7633C81.7299 37.8377 81.7345 37.9132 81.7526 37.9859L82.2614 40.0208L81.3038 41.0982L80.6965 41.7661L80.4568 41.8261C80.558 41.7082 80.6102 41.5561 80.6027 41.401L80.5668 40.6801C80.66 40.6143 80.7328 40.5236 80.7769 40.4184L81.51 38.6588C81.5407 38.5848 81.5566 38.5055 81.5566 38.4254V36.299C81.5566 36.2517 81.5512 36.2045 81.5403 36.1585L81.3344 35.2931L81.3343 35.2929ZM79.926 42.1283C79.9079 42.1559 79.8921 42.185 79.8788 42.2152L79.2219 43.7257L78.7375 44.0214C78.7078 43.9344 78.6588 43.8553 78.5941 43.79C78.5294 43.7247 78.4507 43.6749 78.364 43.6444C78.2773 43.6139 78.1848 43.6034 78.0935 43.6139C78.0022 43.6243 77.9144 43.6553 77.8368 43.7046L77.5763 43.8704L78.2723 42.8698L79.926 42.1284L79.926 42.1283ZM76.8792 45.1051C76.894 45.1243 76.9099 45.1427 76.927 45.1601L77.4236 45.6563L77.4729 46.4942L77.4444 46.5451L77.3797 46.424C77.3716 46.409 77.3629 46.3943 77.3536 46.38L76.7312 45.4179L76.8792 45.1056L76.8792 45.1051Z" fill="black"/>
</svg>
