<svg width="24" height="30" viewBox="0 0 24 30" fill="none" xmlns="http://www.w3.org/2000/svg">
<g clip-path="url(#clip0)">
<circle cx="12" cy="12" r="10" fill="white"/>
<path d="M17.71 14.29C17.8037 14.383 17.8781 14.4936 17.9289 14.6154C17.9797 14.7373 18.0058 14.868 18.0058 15C18.0058 15.132 17.9797 15.2627 17.9289 15.3846C17.8781 15.5064 17.8037 15.617 17.71 15.71L14.71 18.71C14.6149 18.801 14.5028 18.8724 14.38 18.92C14.2603 18.9729 14.1309 19.0002 14 19.0002C13.8691 19.0002 13.7397 18.9729 13.62 18.92C13.4972 18.8724 13.3851 18.801 13.29 18.71L10.29 15.71C10.1017 15.5217 9.99591 15.2663 9.99591 15C9.99591 14.7337 10.1017 14.4783 10.29 14.29C10.4783 14.1017 10.7337 13.9959 11 13.9959C11.2663 13.9959 11.5217 14.1017 11.71 14.29L13 15.59V11C13 9.93913 12.5786 8.92172 11.8284 8.17157C11.0783 7.42143 10.0609 7 9 7C8.73478 7 8.48043 6.89464 8.29289 6.70711C8.10536 6.51957 8 6.26522 8 6C8 5.73478 8.10536 5.48043 8.29289 5.29289C8.48043 5.10536 8.73478 5 9 5C10.5913 5 12.1174 5.63214 13.2426 6.75736C14.3679 7.88258 15 9.4087 15 11V15.59L16.29 14.29C16.383 14.1963 16.4936 14.1219 16.6154 14.0711C16.7373 14.0203 16.868 13.9942 17 13.9942C17.132 13.9942 17.2627 14.0203 17.3846 14.0711C17.5064 14.1219 17.617 14.1963 17.71 14.29ZM23 12C23 14.1756 22.3549 16.3023 21.1462 18.1113C19.9375 19.9202 18.2195 21.3301 16.2095 22.1627C14.1995 22.9952 11.9878 23.2131 9.85401 22.7886C7.72021 22.3642 5.7602 21.3166 4.22182 19.7782C2.68345 18.2398 1.6358 16.2798 1.21136 14.146C0.786924 12.0122 1.00476 9.80047 1.83732 7.79048C2.66989 5.78049 4.07979 4.06253 5.88873 2.85383C7.69767 1.64514 9.8244 1 12 1C14.9174 1 17.7153 2.15893 19.7782 4.22183C21.8411 6.28473 23 9.08262 23 12ZM21 12C21 10.22 20.4722 8.47991 19.4832 6.99987C18.4943 5.51983 17.0887 4.36627 15.4441 3.68508C13.7996 3.0039 11.99 2.82567 10.2442 3.17293C8.49836 3.5202 6.89471 4.37737 5.63604 5.63604C4.37737 6.89471 3.5202 8.49836 3.17293 10.2442C2.82566 11.99 3.00389 13.7996 3.68508 15.4442C4.36627 17.0887 5.51982 18.4943 6.99987 19.4832C8.47991 20.4722 10.22 21 12 21C14.3869 21 16.6761 20.0518 18.364 18.364C20.0518 16.6761 21 14.3869 21 12V12Z" fill="black"/>
</g>
<defs>
<clipPath id="clip0">
<rect width="24" height="30" fill="white"/>
</clipPath>
</defs>
</svg>
