<svg xmlns="http://www.w3.org/2000/svg" data-name="Layer 1" viewBox="0 0 100 125" x="0px" y="0px"><title>mail50</title><path d="M50,100A50,50,0,1,0,0,50,50,50,0,0,0,50,100ZM25.66,35.92a7.58,7.58,0,0,1,7.29-4.67c5.66,0,11.32,0,17,0h0c5.68,0,11.36,0,17,0a7.68,7.68,0,0,1,7.31,4.48,1.36,1.36,0,0,1-.72,2.1L51,49.6a1.88,1.88,0,0,1-1.87,0L26.29,37.73A1.19,1.19,0,0,1,25.66,35.92Zm1.49,7.51Q37.8,49,48.43,54.53a3.09,3.09,0,0,0,3.15,0q10.58-5.55,21.19-11a2.44,2.44,0,0,1,.66-0.25A1.19,1.19,0,0,1,75,44.52q0,7.07,0,14.13a22.27,22.27,0,0,1-.13,3.66,7.62,7.62,0,0,1-7.64,6.44c-4.64,0-9.28,0-13.91,0H32.93A7.72,7.72,0,0,1,25.29,63,7.84,7.84,0,0,1,25,61c0-5.44,0-10.88,0-16.33C25,43.3,25.88,42.78,27.15,43.43Z"/><text x="0" y="115" fill="#000000" font-size="5px" font-weight="bold" font-family="'Helvetica Neue', Helvetica, Arial-Unicode, Arial, Sans-serif">Created by i cons</text><text x="0" y="120" fill="#000000" font-size="5px" font-weight="bold" font-family="'Helvetica Neue', Helvetica, Arial-Unicode, Arial, Sans-serif">from the Noun Project</text></svg>